<mxfile host="65bd71144e" pages="3">
    <diagram id="tZV41eV5Yf6VCfowvUMp" name="s1 class diagram">
        <mxGraphModel dx="1784" dy="1445" grid="1" gridSize="10" guides="1" tooltips="1" connect="1" arrows="1" fold="1" page="1" pageScale="1" pageWidth="850" pageHeight="1100" math="0" shadow="0">
            <root>
                <mxCell id="ulCk_vGKbhBcZJey2qih-0"/>
                <mxCell id="ulCk_vGKbhBcZJey2qih-1" parent="ulCk_vGKbhBcZJey2qih-0"/>
                <mxCell id="ELNU14p1_F97Vqpn7HV8-0" value="Book" style="swimlane;fontStyle=1;align=center;verticalAlign=top;childLayout=stackLayout;horizontal=1;startSize=26;horizontalStack=0;resizeParent=1;resizeParentMax=0;resizeLast=0;collapsible=1;marginBottom=0;" parent="ulCk_vGKbhBcZJey2qih-1" vertex="1">
                    <mxGeometry x="260" y="-37" width="160" height="230" as="geometry"/>
                </mxCell>
                <mxCell id="ELNU14p1_F97Vqpn7HV8-1" value="+ title : string&#10;+ author : string&#10;+ language : string&#10;+ price : flaot&#10;+ available : boolean" style="text;strokeColor=none;fillColor=none;align=left;verticalAlign=top;spacingLeft=4;spacingRight=4;overflow=hidden;rotatable=0;points=[[0,0.5],[1,0.5]];portConstraint=eastwest;" parent="ELNU14p1_F97Vqpn7HV8-0" vertex="1">
                    <mxGeometry y="26" width="160" height="94" as="geometry"/>
                </mxCell>
                <mxCell id="ELNU14p1_F97Vqpn7HV8-2" value="" style="line;strokeWidth=1;fillColor=none;align=left;verticalAlign=middle;spacingTop=-1;spacingLeft=3;spacingRight=3;rotatable=0;labelPosition=right;points=[];portConstraint=eastwest;" parent="ELNU14p1_F97Vqpn7HV8-0" vertex="1">
                    <mxGeometry y="120" width="160" height="8" as="geometry"/>
                </mxCell>
                <mxCell id="ELNU14p1_F97Vqpn7HV8-3" value="+ open(): void&#10;+ read() : void&#10;+ bookmark(int page) : void&#10;+ getCurrentPage() : int&#10;+ close() : void" style="text;strokeColor=none;fillColor=none;align=left;verticalAlign=top;spacingLeft=4;spacingRight=4;overflow=hidden;rotatable=0;points=[[0,0.5],[1,0.5]];portConstraint=eastwest;" parent="ELNU14p1_F97Vqpn7HV8-0" vertex="1">
                    <mxGeometry y="128" width="160" height="102" as="geometry"/>
                </mxCell>
                <mxCell id="ELNU14p1_F97Vqpn7HV8-5" value="Author" style="swimlane;fontStyle=1;align=center;verticalAlign=top;childLayout=stackLayout;horizontal=1;startSize=26;horizontalStack=0;resizeParent=1;resizeParentMax=0;resizeLast=0;collapsible=1;marginBottom=0;" parent="ulCk_vGKbhBcZJey2qih-1" vertex="1">
                    <mxGeometry x="-70" y="-47" width="160" height="230" as="geometry"/>
                </mxCell>
                <mxCell id="ELNU14p1_F97Vqpn7HV8-6" value="+ author &quot; string&#10;+ noOfBooksWritten : int&#10;+ category : string" style="text;strokeColor=none;fillColor=none;align=left;verticalAlign=top;spacingLeft=4;spacingRight=4;overflow=hidden;rotatable=0;points=[[0,0.5],[1,0.5]];portConstraint=eastwest;" parent="ELNU14p1_F97Vqpn7HV8-5" vertex="1">
                    <mxGeometry y="26" width="160" height="94" as="geometry"/>
                </mxCell>
                <mxCell id="ELNU14p1_F97Vqpn7HV8-7" value="" style="line;strokeWidth=1;fillColor=none;align=left;verticalAlign=middle;spacingTop=-1;spacingLeft=3;spacingRight=3;rotatable=0;labelPosition=right;points=[];portConstraint=eastwest;" parent="ELNU14p1_F97Vqpn7HV8-5" vertex="1">
                    <mxGeometry y="120" width="160" height="8" as="geometry"/>
                </mxCell>
                <mxCell id="ELNU14p1_F97Vqpn7HV8-8" value="+ getAuthorDetails() : void" style="text;strokeColor=none;fillColor=none;align=left;verticalAlign=top;spacingLeft=4;spacingRight=4;overflow=hidden;rotatable=0;points=[[0,0.5],[1,0.5]];portConstraint=eastwest;" parent="ELNU14p1_F97Vqpn7HV8-5" vertex="1">
                    <mxGeometry y="128" width="160" height="102" as="geometry"/>
                </mxCell>
                <mxCell id="ELNU14p1_F97Vqpn7HV8-9" value="" style="endArrow=diamondThin;endFill=0;endSize=24;html=1;entryX=-0.017;entryY=0.736;entryDx=0;entryDy=0;entryPerimeter=0;exitX=1.015;exitY=0.868;exitDx=0;exitDy=0;exitPerimeter=0;" parent="ulCk_vGKbhBcZJey2qih-1" source="ELNU14p1_F97Vqpn7HV8-6" target="ELNU14p1_F97Vqpn7HV8-1" edge="1">
                    <mxGeometry width="160" relative="1" as="geometry">
                        <mxPoint x="120" y="23" as="sourcePoint"/>
                        <mxPoint x="280" y="23" as="targetPoint"/>
                    </mxGeometry>
                </mxCell>
                <mxCell id="ELNU14p1_F97Vqpn7HV8-11" value="1..*" style="text;html=1;strokeColor=none;fillColor=none;align=center;verticalAlign=middle;whiteSpace=wrap;rounded=0;" parent="ulCk_vGKbhBcZJey2qih-1" vertex="1">
                    <mxGeometry x="100" y="33" width="40" height="20" as="geometry"/>
                </mxCell>
                <mxCell id="Gj0618T7t1QrMYGnrgnU-20" value="Compositon" style="text;html=1;strokeColor=none;fillColor=none;align=center;verticalAlign=middle;whiteSpace=wrap;rounded=0;" parent="ulCk_vGKbhBcZJey2qih-1" vertex="1">
                    <mxGeometry x="380" y="413" width="40" height="20" as="geometry"/>
                </mxCell>
                <mxCell id="Gj0618T7t1QrMYGnrgnU-22" value="Aggregation" style="text;html=1;strokeColor=none;fillColor=none;align=center;verticalAlign=middle;whiteSpace=wrap;rounded=0;" parent="ulCk_vGKbhBcZJey2qih-1" vertex="1">
                    <mxGeometry x="150" y="83" width="40" height="20" as="geometry"/>
                </mxCell>
                <mxCell id="Gj0618T7t1QrMYGnrgnU-31" value="Relationships are represented as Associatons [Compositon &amp;amp; Aggregation]" style="rounded=1;whiteSpace=wrap;html=1;fillColor=#b1ddf0;strokeColor=#10739e;fontStyle=1;" parent="ulCk_vGKbhBcZJey2qih-1" vertex="1">
                    <mxGeometry x="30" y="270" width="230" height="40" as="geometry"/>
                </mxCell>
                <mxCell id="Gj0618T7t1QrMYGnrgnU-34" value="" style="group" parent="ulCk_vGKbhBcZJey2qih-1" vertex="1" connectable="0">
                    <mxGeometry x="-60" y="380" width="415" height="86" as="geometry"/>
                </mxCell>
                <mxCell id="Gj0618T7t1QrMYGnrgnU-10" value="Apple" style="swimlane;fontStyle=1;align=center;verticalAlign=top;childLayout=stackLayout;horizontal=1;startSize=26;horizontalStack=0;resizeParent=1;resizeParentMax=0;resizeLast=0;collapsible=1;marginBottom=0;" parent="Gj0618T7t1QrMYGnrgnU-34" vertex="1">
                    <mxGeometry x="255" width="160" height="86" as="geometry"/>
                </mxCell>
                <mxCell id="Gj0618T7t1QrMYGnrgnU-11" value="+ field: type" style="text;strokeColor=none;fillColor=none;align=left;verticalAlign=top;spacingLeft=4;spacingRight=4;overflow=hidden;rotatable=0;points=[[0,0.5],[1,0.5]];portConstraint=eastwest;" parent="Gj0618T7t1QrMYGnrgnU-10" vertex="1">
                    <mxGeometry y="26" width="160" height="26" as="geometry"/>
                </mxCell>
                <mxCell id="Gj0618T7t1QrMYGnrgnU-12" value="" style="line;strokeWidth=1;fillColor=none;align=left;verticalAlign=middle;spacingTop=-1;spacingLeft=3;spacingRight=3;rotatable=0;labelPosition=right;points=[];portConstraint=eastwest;" parent="Gj0618T7t1QrMYGnrgnU-10" vertex="1">
                    <mxGeometry y="52" width="160" height="8" as="geometry"/>
                </mxCell>
                <mxCell id="Gj0618T7t1QrMYGnrgnU-13" value="+ method(type): type" style="text;strokeColor=none;fillColor=none;align=left;verticalAlign=top;spacingLeft=4;spacingRight=4;overflow=hidden;rotatable=0;points=[[0,0.5],[1,0.5]];portConstraint=eastwest;" parent="Gj0618T7t1QrMYGnrgnU-10" vertex="1">
                    <mxGeometry y="60" width="160" height="26" as="geometry"/>
                </mxCell>
                <mxCell id="Gj0618T7t1QrMYGnrgnU-14" value="AppleSeed" style="swimlane;fontStyle=1;align=center;verticalAlign=top;childLayout=stackLayout;horizontal=1;startSize=26;horizontalStack=0;resizeParent=1;resizeParentMax=0;resizeLast=0;collapsible=1;marginBottom=0;" parent="Gj0618T7t1QrMYGnrgnU-34" vertex="1">
                    <mxGeometry width="160" height="86" as="geometry"/>
                </mxCell>
                <mxCell id="Gj0618T7t1QrMYGnrgnU-15" value="+ field: type" style="text;strokeColor=none;fillColor=none;align=left;verticalAlign=top;spacingLeft=4;spacingRight=4;overflow=hidden;rotatable=0;points=[[0,0.5],[1,0.5]];portConstraint=eastwest;" parent="Gj0618T7t1QrMYGnrgnU-14" vertex="1">
                    <mxGeometry y="26" width="160" height="26" as="geometry"/>
                </mxCell>
                <mxCell id="Gj0618T7t1QrMYGnrgnU-16" value="" style="line;strokeWidth=1;fillColor=none;align=left;verticalAlign=middle;spacingTop=-1;spacingLeft=3;spacingRight=3;rotatable=0;labelPosition=right;points=[];portConstraint=eastwest;" parent="Gj0618T7t1QrMYGnrgnU-14" vertex="1">
                    <mxGeometry y="52" width="160" height="8" as="geometry"/>
                </mxCell>
                <mxCell id="Gj0618T7t1QrMYGnrgnU-17" value="+ method(type): type" style="text;strokeColor=none;fillColor=none;align=left;verticalAlign=top;spacingLeft=4;spacingRight=4;overflow=hidden;rotatable=0;points=[[0,0.5],[1,0.5]];portConstraint=eastwest;" parent="Gj0618T7t1QrMYGnrgnU-14" vertex="1">
                    <mxGeometry y="60" width="160" height="26" as="geometry"/>
                </mxCell>
                <mxCell id="Gj0618T7t1QrMYGnrgnU-19" value="0..*" style="text;html=1;strokeColor=none;fillColor=none;align=center;verticalAlign=middle;whiteSpace=wrap;rounded=0;" parent="Gj0618T7t1QrMYGnrgnU-34" vertex="1">
                    <mxGeometry x="165" y="10" width="40" height="20" as="geometry"/>
                </mxCell>
                <mxCell id="Gj0618T7t1QrMYGnrgnU-33" value="" style="endArrow=diamondThin;endFill=1;endSize=24;html=1;" parent="Gj0618T7t1QrMYGnrgnU-34" edge="1">
                    <mxGeometry width="160" relative="1" as="geometry">
                        <mxPoint x="160" y="42.5" as="sourcePoint"/>
                        <mxPoint x="250" y="42.5" as="targetPoint"/>
                    </mxGeometry>
                </mxCell>
                <mxCell id="Gj0618T7t1QrMYGnrgnU-49" value="1" style="text;html=1;strokeColor=none;fillColor=none;align=center;verticalAlign=middle;whiteSpace=wrap;rounded=0;" parent="Gj0618T7t1QrMYGnrgnU-34" vertex="1">
                    <mxGeometry x="205" y="10" width="40" height="20" as="geometry"/>
                </mxCell>
                <mxCell id="Gj0618T7t1QrMYGnrgnU-35" value="Zero to Many" style="text;html=1;align=center;verticalAlign=middle;resizable=0;points=[];autosize=1;strokeColor=none;fillColor=none;" parent="ulCk_vGKbhBcZJey2qih-1" vertex="1">
                    <mxGeometry x="100" y="480" width="90" height="20" as="geometry"/>
                </mxCell>
                <mxCell id="Gj0618T7t1QrMYGnrgnU-36" value="" style="group" parent="ulCk_vGKbhBcZJey2qih-1" vertex="1" connectable="0">
                    <mxGeometry x="-60" y="520" width="415" height="86" as="geometry"/>
                </mxCell>
                <mxCell id="Gj0618T7t1QrMYGnrgnU-37" value="Phone" style="swimlane;fontStyle=1;align=center;verticalAlign=top;childLayout=stackLayout;horizontal=1;startSize=26;horizontalStack=0;resizeParent=1;resizeParentMax=0;resizeLast=0;collapsible=1;marginBottom=0;" parent="Gj0618T7t1QrMYGnrgnU-36" vertex="1">
                    <mxGeometry x="255" width="160" height="86" as="geometry"/>
                </mxCell>
                <mxCell id="Gj0618T7t1QrMYGnrgnU-38" value="+ field: type" style="text;strokeColor=none;fillColor=none;align=left;verticalAlign=top;spacingLeft=4;spacingRight=4;overflow=hidden;rotatable=0;points=[[0,0.5],[1,0.5]];portConstraint=eastwest;" parent="Gj0618T7t1QrMYGnrgnU-37" vertex="1">
                    <mxGeometry y="26" width="160" height="26" as="geometry"/>
                </mxCell>
                <mxCell id="Gj0618T7t1QrMYGnrgnU-39" value="" style="line;strokeWidth=1;fillColor=none;align=left;verticalAlign=middle;spacingTop=-1;spacingLeft=3;spacingRight=3;rotatable=0;labelPosition=right;points=[];portConstraint=eastwest;" parent="Gj0618T7t1QrMYGnrgnU-37" vertex="1">
                    <mxGeometry y="52" width="160" height="8" as="geometry"/>
                </mxCell>
                <mxCell id="Gj0618T7t1QrMYGnrgnU-40" value="+ method(type): type" style="text;strokeColor=none;fillColor=none;align=left;verticalAlign=top;spacingLeft=4;spacingRight=4;overflow=hidden;rotatable=0;points=[[0,0.5],[1,0.5]];portConstraint=eastwest;" parent="Gj0618T7t1QrMYGnrgnU-37" vertex="1">
                    <mxGeometry y="60" width="160" height="26" as="geometry"/>
                </mxCell>
                <mxCell id="Gj0618T7t1QrMYGnrgnU-41" value="Ports" style="swimlane;fontStyle=1;align=center;verticalAlign=top;childLayout=stackLayout;horizontal=1;startSize=26;horizontalStack=0;resizeParent=1;resizeParentMax=0;resizeLast=0;collapsible=1;marginBottom=0;" parent="Gj0618T7t1QrMYGnrgnU-36" vertex="1">
                    <mxGeometry width="160" height="86" as="geometry"/>
                </mxCell>
                <mxCell id="Gj0618T7t1QrMYGnrgnU-42" value="+ field: type" style="text;strokeColor=none;fillColor=none;align=left;verticalAlign=top;spacingLeft=4;spacingRight=4;overflow=hidden;rotatable=0;points=[[0,0.5],[1,0.5]];portConstraint=eastwest;" parent="Gj0618T7t1QrMYGnrgnU-41" vertex="1">
                    <mxGeometry y="26" width="160" height="26" as="geometry"/>
                </mxCell>
                <mxCell id="Gj0618T7t1QrMYGnrgnU-43" value="" style="line;strokeWidth=1;fillColor=none;align=left;verticalAlign=middle;spacingTop=-1;spacingLeft=3;spacingRight=3;rotatable=0;labelPosition=right;points=[];portConstraint=eastwest;" parent="Gj0618T7t1QrMYGnrgnU-41" vertex="1">
                    <mxGeometry y="52" width="160" height="8" as="geometry"/>
                </mxCell>
                <mxCell id="Gj0618T7t1QrMYGnrgnU-44" value="+ method(type): type" style="text;strokeColor=none;fillColor=none;align=left;verticalAlign=top;spacingLeft=4;spacingRight=4;overflow=hidden;rotatable=0;points=[[0,0.5],[1,0.5]];portConstraint=eastwest;" parent="Gj0618T7t1QrMYGnrgnU-41" vertex="1">
                    <mxGeometry y="60" width="160" height="26" as="geometry"/>
                </mxCell>
                <mxCell id="Gj0618T7t1QrMYGnrgnU-45" value="1..*" style="text;html=1;strokeColor=none;fillColor=none;align=center;verticalAlign=middle;whiteSpace=wrap;rounded=0;" parent="Gj0618T7t1QrMYGnrgnU-36" vertex="1">
                    <mxGeometry x="165" y="10" width="40" height="20" as="geometry"/>
                </mxCell>
                <mxCell id="Gj0618T7t1QrMYGnrgnU-46" value="" style="endArrow=diamondThin;endFill=1;endSize=24;html=1;" parent="Gj0618T7t1QrMYGnrgnU-36" edge="1">
                    <mxGeometry width="160" relative="1" as="geometry">
                        <mxPoint x="160" y="42.5" as="sourcePoint"/>
                        <mxPoint x="250" y="42.5" as="targetPoint"/>
                    </mxGeometry>
                </mxCell>
                <mxCell id="Gj0618T7t1QrMYGnrgnU-47" value="One to May" style="text;html=1;align=center;verticalAlign=middle;resizable=0;points=[];autosize=1;strokeColor=none;fillColor=none;" parent="ulCk_vGKbhBcZJey2qih-1" vertex="1">
                    <mxGeometry x="105" y="620" width="80" height="20" as="geometry"/>
                </mxCell>
                <mxCell id="Gj0618T7t1QrMYGnrgnU-62" value="1" style="text;html=1;align=center;verticalAlign=middle;resizable=0;points=[];autosize=1;strokeColor=none;fillColor=none;" parent="ulCk_vGKbhBcZJey2qih-1" vertex="1">
                    <mxGeometry x="160" y="530" width="20" height="20" as="geometry"/>
                </mxCell>
                <mxCell id="Gj0618T7t1QrMYGnrgnU-63" value="" style="group" parent="ulCk_vGKbhBcZJey2qih-1" vertex="1" connectable="0">
                    <mxGeometry x="-60" y="660" width="415" height="86" as="geometry"/>
                </mxCell>
                <mxCell id="Gj0618T7t1QrMYGnrgnU-64" value="Courses" style="swimlane;fontStyle=1;align=center;verticalAlign=top;childLayout=stackLayout;horizontal=1;startSize=26;horizontalStack=0;resizeParent=1;resizeParentMax=0;resizeLast=0;collapsible=1;marginBottom=0;" parent="Gj0618T7t1QrMYGnrgnU-63" vertex="1">
                    <mxGeometry x="255" width="160" height="86" as="geometry"/>
                </mxCell>
                <mxCell id="Gj0618T7t1QrMYGnrgnU-65" value="+ field: type" style="text;strokeColor=none;fillColor=none;align=left;verticalAlign=top;spacingLeft=4;spacingRight=4;overflow=hidden;rotatable=0;points=[[0,0.5],[1,0.5]];portConstraint=eastwest;" parent="Gj0618T7t1QrMYGnrgnU-64" vertex="1">
                    <mxGeometry y="26" width="160" height="26" as="geometry"/>
                </mxCell>
                <mxCell id="Gj0618T7t1QrMYGnrgnU-66" value="" style="line;strokeWidth=1;fillColor=none;align=left;verticalAlign=middle;spacingTop=-1;spacingLeft=3;spacingRight=3;rotatable=0;labelPosition=right;points=[];portConstraint=eastwest;" parent="Gj0618T7t1QrMYGnrgnU-64" vertex="1">
                    <mxGeometry y="52" width="160" height="8" as="geometry"/>
                </mxCell>
                <mxCell id="Gj0618T7t1QrMYGnrgnU-67" value="+ method(type): type" style="text;strokeColor=none;fillColor=none;align=left;verticalAlign=top;spacingLeft=4;spacingRight=4;overflow=hidden;rotatable=0;points=[[0,0.5],[1,0.5]];portConstraint=eastwest;" parent="Gj0618T7t1QrMYGnrgnU-64" vertex="1">
                    <mxGeometry y="60" width="160" height="26" as="geometry"/>
                </mxCell>
                <mxCell id="Gj0618T7t1QrMYGnrgnU-68" value="Participants" style="swimlane;fontStyle=1;align=center;verticalAlign=top;childLayout=stackLayout;horizontal=1;startSize=26;horizontalStack=0;resizeParent=1;resizeParentMax=0;resizeLast=0;collapsible=1;marginBottom=0;" parent="Gj0618T7t1QrMYGnrgnU-63" vertex="1">
                    <mxGeometry width="160" height="86" as="geometry"/>
                </mxCell>
                <mxCell id="Gj0618T7t1QrMYGnrgnU-69" value="+ field: type" style="text;strokeColor=none;fillColor=none;align=left;verticalAlign=top;spacingLeft=4;spacingRight=4;overflow=hidden;rotatable=0;points=[[0,0.5],[1,0.5]];portConstraint=eastwest;" parent="Gj0618T7t1QrMYGnrgnU-68" vertex="1">
                    <mxGeometry y="26" width="160" height="26" as="geometry"/>
                </mxCell>
                <mxCell id="Gj0618T7t1QrMYGnrgnU-70" value="" style="line;strokeWidth=1;fillColor=none;align=left;verticalAlign=middle;spacingTop=-1;spacingLeft=3;spacingRight=3;rotatable=0;labelPosition=right;points=[];portConstraint=eastwest;" parent="Gj0618T7t1QrMYGnrgnU-68" vertex="1">
                    <mxGeometry y="52" width="160" height="8" as="geometry"/>
                </mxCell>
                <mxCell id="Gj0618T7t1QrMYGnrgnU-71" value="+ method(type): type" style="text;strokeColor=none;fillColor=none;align=left;verticalAlign=top;spacingLeft=4;spacingRight=4;overflow=hidden;rotatable=0;points=[[0,0.5],[1,0.5]];portConstraint=eastwest;" parent="Gj0618T7t1QrMYGnrgnU-68" vertex="1">
                    <mxGeometry y="60" width="160" height="26" as="geometry"/>
                </mxCell>
                <mxCell id="Gj0618T7t1QrMYGnrgnU-72" value="1..*" style="text;html=1;strokeColor=none;fillColor=none;align=center;verticalAlign=middle;whiteSpace=wrap;rounded=0;" parent="Gj0618T7t1QrMYGnrgnU-63" vertex="1">
                    <mxGeometry x="165" y="10" width="40" height="20" as="geometry"/>
                </mxCell>
                <mxCell id="Gj0618T7t1QrMYGnrgnU-76" value="" style="endArrow=diamondThin;endFill=0;endSize=24;html=1;" parent="Gj0618T7t1QrMYGnrgnU-63" edge="1">
                    <mxGeometry width="160" relative="1" as="geometry">
                        <mxPoint x="160" y="50" as="sourcePoint"/>
                        <mxPoint x="250" y="50" as="targetPoint"/>
                    </mxGeometry>
                </mxCell>
                <mxCell id="Gj0618T7t1QrMYGnrgnU-74" value="1" style="text;html=1;align=center;verticalAlign=middle;resizable=0;points=[];autosize=1;strokeColor=none;fillColor=none;" parent="ulCk_vGKbhBcZJey2qih-1" vertex="1">
                    <mxGeometry x="160" y="670" width="20" height="20" as="geometry"/>
                </mxCell>
                <mxCell id="Gj0618T7t1QrMYGnrgnU-78" value="Aggergatoin" style="text;html=1;strokeColor=none;fillColor=none;align=center;verticalAlign=middle;whiteSpace=wrap;rounded=0;" parent="ulCk_vGKbhBcZJey2qih-1" vertex="1">
                    <mxGeometry x="380" y="680" width="40" height="20" as="geometry"/>
                </mxCell>
            </root>
        </mxGraphModel>
    </diagram>
    <diagram id="3VCJfX6IJKagHWM0zGrT" name="c3 s2 Encapsulation and Data Abstraction">
        <mxGraphModel dx="934" dy="345" grid="1" gridSize="10" guides="1" tooltips="1" connect="1" arrows="1" fold="1" page="1" pageScale="1" pageWidth="850" pageHeight="1100" math="0" shadow="0">
            <root>
                <mxCell id="SbIFTopSjhQOu-wJuFv1-0"/>
                <mxCell id="SbIFTopSjhQOu-wJuFv1-1" parent="SbIFTopSjhQOu-wJuFv1-0"/>
                <mxCell id="SbIFTopSjhQOu-wJuFv1-3" value="" style="shape=image;verticalLabelPosition=bottom;labelBackgroundColor=#ffffff;verticalAlign=top;aspect=fixed;imageAspect=0;image=data:image/jpeg,/9j/4AAQSkZJRgABAQAAAQABAAD/2wCEAAoGBxMUExERExQRFhERERYWEBYTFhERFhYRFhIYGBYWFhYaHysiGhwoHxYWIzQjKCwuMTExGSE3PDcvOyswMS4BCwsLDw4PHBERHTAoIigwMDAuLjAwMDAwMDAwMDAwMDAwMDAwMDAwMDAwMDAwLjAwMDAwMDAwMDAwMDAwMDAwMP/AABEIALcBEwMBIgACEQEDEQH/xAAbAAEAAgMBAQAAAAAAAAAAAAAAAwUBBAYCB//EADoQAAIBAwAHBgQFAgYDAAAAAAABAgMEEQUSITFBUWEGE3GBkaEiMrHRFEJSgsFi8CNTcrLh8QcWov/EABoBAQACAwEAAAAAAAAAAAAAAAACBAEDBQb/xAAuEQACAgEDAwEIAgIDAAAAAAAAAQIDEQQSITFBUYEFE2FxkaHR8CKxweEjMlL/2gAMAwEAAhEDEQA/APswAAAAAAAAAAAAAAAAAAAAAAAAAAAAAAAAAAAAAAAAAAAAAAAAAAAAAAAAAAAAAAAAAAAAAAAAAAAAAAB4nPAB7BB35JGaYB7AAAAAAAAAAAAAAAAAAAAAAAAAAAAAAAAAAIa1ZLxAJgV87hviI3TXEAsAR0aqksokAAAAPMpJbWQqq3u2Iiv6u1R4b2Ru4ANvWfMrr+jW30quH+lqGPJ4+vqTRuCaNZMlFuLz/sjOCmsPPo8FNQ0vUjJU7iGq3uljC8+DXVF1Qlt6M81aUZLDSa5NZRi3jGCUcNJbt7wuW0lOUZcpY/r/AEQrhOHEpZXZvr8viboIY3EG3FSjrJZaztxzxyPfex5o1m09g8d7Hmh3seaAPYIK9zCEZTlKKjFZk29yNP8A9itf86HuSjCUuibISsjH/s0vmyzBXLTtt/nU/Ukp6WoS3VaT/fEz7ufh/QKcX3X1N0GtC+pvYqlNvpOL/k2SDWOpNcgAAAAAAAAAAAAAAA0dJaVpUVmcknwjlZZQ9ou1+pKVGglKotk5v5YvkubOVuatao25zWXv2F6jRSniU+F9zn6jXxhmNay/sWWm+1U6jajLVjyi2vUo4aYrQetCpJPxbXmnsZq3EHF/Elt4rYQSZ2IU1xjtSWDg26i2yWW3n1R3XZ/tL33+HPEaiWzHyzS345Pp/atu+Pl1O4cGpxfxRaafVHeW96u775/Ko63tnH8HM1eljCScOj7fE7Oh1crYONnVd/K/JdLS1Kim6ssJrYt7b6I0H26pt4jTk1zbS9jjat26s51ajyuC4Y8Dy6Tl8TeM7ljcuBur0NSX/Jy/sVLvaV7f/FhL7teeeh9Jse0NGp+ZRlybT90WcZprKaa6bT4/icefitpednb+7b/wk3FfM28RXjn6LLNN+gjGO6MuPj+TfpfakrJqucXn4HY6SniolwlFNfR/x6mvORp6Qu68oLvKdPMNqlTnUlLPFajppNPxXmU0O1NJT7qo9Sp+mWxvqs7znHXR0feHqNYrKN/GW1NMmVUzgMtKdyTwuUUyrGh2g0p3dGWH8c9kfPe/JEo1uUlFdyM7FCLk+i5NTStVVa06kJOMk/gcW18K2L7mzZdpq1LEa0VUh+qOyS8eZyNG6lHczdt9KrdL/g7UqIuKi1lL96nmYaqSm5puLby/D+aPoVhpmjWWYSWeMXskvI2++j0PnerGXxRerLg08G7Q01Wppd4lOP6o7JLx5lKzQ94P0f56M6lXtLtavVdPVdjqdOVY9xVzjGqcNPuuUfRFppjScaltUcXnKSa47ZI4155M36GtxjJPjn/Bo9o2KUouKT46+pdSjS/TH2PLpUuSKTWY7x82XufJzsr/AMr99C6/D0v7ZYaM07VtWmpSqUc/FBvOFzT4HLKq+b9WS07mWGt+VxIziprEuUSrn7t7oLa/K/eT7TaXMakI1IPMJxTi+jJzmv8Ax5KX4VRl+SpJLoniWPc6U87ZDZNx8HqKp74KXlAAEDYAAAAYGQAVPam+dG2q1I7J6urF8m+PksstNYpO2VNztp4/LKMn4bn9TZVFOcU+mUarm/dyx1wz5rTvFCOzbJ7X4mFpKXIjrW6zs2EfcdT0OUeZ2zRtzvFOLT5FdORN3Xphi2t9bOeiWebZOOEa5qUmkerCyc3l7uHU6/SVuo2NSnFrXhCGslwUZRcl6Jmro6yUcfq58vDqXVtbLGHuaw/B7zlajV7prbyk8/Q7um0eytqXDawfO4VXu4G9RveZ60xoWVCbS203lwlzjyfVFfqs6ycZrK6Hn5Rsqk4s6DRVLvqkacX83zP9KW9/3xaO8tbeEIxhBYjFbEvq+b6nF9haW2rU46sUuiy2/ovQ62nWfE4mum3Zt7I9F7OrSpU8cy/rsb0YeBDfaJoV46lalTnF8JxUjNKqT9+kUToHOVew9OD1rapUp/0SbqQ8s7V6niNrVpvVmtvBrc+p0ju0aekFGpFxe57mniUXwcXwZOPxIyfHBXKJxfaO8dSq2s6kNkP5fmdVUjVlTlT1lrfK5Yw2vLmc5f6LqU/mi1Hg+D89x09JWozbbWexyNfNzgopNLv+Ck70ki3vPdW3T3EUIyT1cN8sbTpdehyFHySU67jubRYUdKcJGNHaEr13qxjHZv15Rhjrjf7HQWfYVb61X9tNP/fL7FazUVQ4m+S1VpLpc1rj49Dmbua2qL+Ga2peK+y9DW1D6RZdnLWn8tFSfOo3P2fw+xvfgoY1e7pavLUp49MFaXtCHRJv99S7X7Mn1lJL4dfwfK+7Md2uSO4052VpzTlSSp1OGPkl0a/L4r0OArXbhKdOfwTg2pRknlNcNhYpuhcuHz4K19NlLxJZ8NE6pLkiahT27EaltdKbwpRT/qer7nVdn7SMZRnNKUltX6U+fUlZNQXUjTCU30wdn2WsnSt4RlslL45LlncvRItslRbXjZuU62Thzy5Ns9BDCikjbBHGZ7TIYNhkGMgxgGGzw5HtojkiRg8TqGpdVU04vammmujJ6kGaVzbyZOODXLocLp3RndybW2nwfLoyoc48zrNPvu852y5fc4fSFGrOTeNX/SlH6HXps3R/kcXU1OMv4mzUuYRWW/8Ak1I1Z1JLGYwT3c/Eza6Jk3l5ZeWOjMY2G5zWDTCqWeTa0DdSjiM8uD4vfHz5HSSnjcVdtYl3Z2j1VngvZHOuUE8o61O/GGUWmrjEcSf8v0OQr6Qipv4Xq+Wz0Or0nbOcm35eBSXmis8C3R/BFLUxc2WnYy/p684KS+NLV/1RzleOH/8AJ18T5PV0bODUoNxknlNbNqOj7PdprhSVOrDvILfOOFKK5tbn7eZW1VG5uyL+ZY0V+2KrkvkztcciKrVZ7t7iFRZg0+fBrxW9Edemc46bZrzuTEK+dh4qUWU2l9KODdKn8+6TXB8i1VU5vESpdcqo7pFtWv4QfxNdSO97Vw1HCEU9mPjxLP7V9znKdst83l9fsSOhT5L2OitNXxu5OXLV3PO1Jf2a1aSlLWVN/FwWUvJL7iEanDEF0wvobUUorhgw6yLO7sU/dtvLf04I6Fs4tS1nrJ5TTw0/E7ns/pHvYYljvYYU+q4M4apdpcUT6C0vqV6e/E3qy4bJbvfBU1VXva35XT9+Rc0dsabEk+H1/wAP+j6G5ojlXRoSrs8NtnEPQG5VuEcj2s0FGrOFZJa0ouM+urjVb64eP2o6JRM3NLKiuWWbtPNxsTNOogp1tM4OHZ1LgdDoCg6bSe2HFclzRa/gyWladC9O1NYZShTteUXVKyS3E8aJ6tliEE9+qvoSnNcmdFI8KmesGQRJGMAyAAYwejABhxPE4LDb4IkMSWU1zQyMHF31vrtye9tt+ppPRi5HTV7LBD+F6F+NuCi6slHT0cuRuW1l0LOFobdtZbjEruDMajWs9H9DerqMI6vGSezo9mWbkYKK8CmdXWnKT5lWdjkWlBIU7GH6E+stvsKmjKT30oeWY/RkyuESKujG+XXL+pnbHwiqr9nLeX5Zx8JZ/wByZinoCnGKjB4X9S3vm2i5VRDCDsm1hsxGuEXlI5y60TOGZppau3WUlHHm8EFLS01serNejIe1tz3s3RTfd03tw/ml18N3jkoPwcl8spIv06FTgpSlhs52o9oShZthDKXx7nVR0on+VrzOIqVJRqOUllybbe/a3k3lKtHc0yOotb5qeesW1/Jc0+ndOec5KGp1cbtuU1j1RoVL6XPBiN3LmSTsqT2xnKPSS1/dYPMNHPhOEvB4foy28FRPc+H9z2r54wyGMpPZl+5NChjY1tW/JIka8+DZsb6sgjRfgbFpQxOD2tqSx45R6jDJY6ItF3kJTaUINSeeONqSXHbg1WWKMW2bqqczSSOuSPSgaNXTEV8kXJ838KIVf1ZPglyS+5589IW9Onk3I0UaFlVbxnf0LKlBklwYayYVsT0rVHuCJYmXJmNqJExk8o9IiSAAMAAAAyAAAAADxKmmePwyJjBnJjBEqCJUhkZMNmcHmt8svB/Q5ystp0jkUl/Q1ZPG57gDS12ZVUy4nloAljXfMxdaQ7uE5PdCL9kR4KztO3+GqJcdVeTms+xOuO6aj5aIWT2QlJdk2cwtJ5bbzlvL8XvJYX8ea+hWOmzyz0WEeV3TXUu43KPcaiZQqRJSrtZxx5mdo96+6LrUj0I6ltB8F5bCqd3LmI3cuYw/Ic4PqjaqpxajJ5X5Zcuj6FZe6QlCUoar1ovby6M3K11rRw9+TYuNH6/dzx8Wooy/b/37EZSxyThHflLsVejb6p3ilJZXLadrZ2ymoyW1NbCmttF44HS9nKWNam92+P8AP8HO1kd63d0dfRN1/wAPJLR0ejcpWSNyNIkjE5uDpkNK3wWdqsxT48fI14QybdtHEfMdAe9Uzg9AwDAMgAwDIAMAyADAMmAAAAAzGTJjAB4bPEpErieJQANepUZp1p5N+dE0L6G+K4b/ALAFfXu4R3v02mIXtKW6S89n1ILizyadXRwBcaqe7BW9o6DdvUxw1X5KSz7Gn+GnH5XJeDaPTuqyTi3rRaw1JJ7OJKEtslLwyM47ouPlHMuJjBPpmUaUdbjnYlx8Cqp6Vg97x47Du1zjYsxPO2xlVLbJfQ23TXI8Oiuohcxe5kkZrmbcNGndBkLoPmjCovmjYaCRjLM7ImKFFeLOm0bbZgm+bKawtXKSXDidVaQWEluRXvnjgu6WvueadqjdsKOJx/vgTULcsLW3SaZRss4wdGFfQ9Rok0KBNE9IqMtHmNMkMZMkTIMmAAZBgyAAAAAAAAAAAAAAAADGDIAMYKyccuXVv6loalWjv8c+oBoyokUrdG44mMAFfUtUa9Sy6Fs0Q3CxGT5Jv2JYMNnzztDa95Ulyjsj5b/coq2inyO4qWeTWqaP6HXrkoxUUca2tzk5M4aej5Ldk8Yqx3Sl9Ts6ujOhr1NFLkbVPwaJUs5hX1Rb1H3RNbX0m9qS82W89EdD1S0RjgT94a1R8C10FJSwtz5b8+DOns6JzGj7Vx2rhu8Udxo2CnTjPmtvitjOfqG08nV0y4we6ETZgZhRJFAot5LqQR6QUT2YJGAZGDBkygAYAAAAAAAAABkAAAAAAAAAAAAw0ZABFKkRytzZMAGnKia93R+GXgWbR5nTTTXMkmYayjmJ25FKh0OgqWRr1LIsq0rusopUCOVsi6naEE7XobFaa3UVDtRG1LJ24VuS96R90aVOgdJ2ep4pNf1vHojQt7XiXdlR1IJcd78WV7p5WDfVDDJkhgyCsWDGDIAAAAAAAAAAAAAAAABkAAAAAAAAAwAAAAAAAAAAADGqgADxKiiKdqgDOWYwiCVmIWSAJbngjtRtUbZImAIN5J4wAAAAAAAAAAAAAAAAAAAAAf/Z;" parent="SbIFTopSjhQOu-wJuFv1-1" vertex="1">
                    <mxGeometry x="60" y="30" width="275" height="183" as="geometry"/>
                </mxCell>
            </root>
        </mxGraphModel>
    </diagram>
    <diagram id="jzDjQmgpSZXa40xKAtMH" name="c3 s5 Interfaces and Polymporphism">
        <mxGraphModel dx="934" dy="345" grid="1" gridSize="10" guides="1" tooltips="1" connect="1" arrows="1" fold="1" page="1" pageScale="1" pageWidth="850" pageHeight="1100" math="0" shadow="0">
            <root>
                <mxCell id="DDt3_GRIumfsRX5ZI_BE-0"/>
                <mxCell id="DDt3_GRIumfsRX5ZI_BE-1" parent="DDt3_GRIumfsRX5ZI_BE-0"/>
                <mxCell id="DDt3_GRIumfsRX5ZI_BE-2" value="Polymorphism and Interfaces" style="rounded=1;whiteSpace=wrap;html=1;fillColor=#bac8d3;strokeColor=#23445d;fontStyle=1;" parent="DDt3_GRIumfsRX5ZI_BE-1" vertex="1">
                    <mxGeometry x="280" y="30" width="230" height="40" as="geometry"/>
                </mxCell>
                <mxCell id="9VdiArjFIxK7xGmwB3Ue-0" value="DebitCard" style="rounded=1;whiteSpace=wrap;html=1;fillColor=#b1ddf0;strokeColor=#10739e;fontStyle=1;" parent="DDt3_GRIumfsRX5ZI_BE-1" vertex="1">
                    <mxGeometry x="80" y="170" width="230" height="40" as="geometry"/>
                </mxCell>
                <mxCell id="9VdiArjFIxK7xGmwB3Ue-9" value="implements" style="edgeStyle=orthogonalEdgeStyle;rounded=0;orthogonalLoop=1;jettySize=auto;html=1;entryX=0.473;entryY=1.115;entryDx=0;entryDy=0;entryPerimeter=0;dashed=1;" parent="DDt3_GRIumfsRX5ZI_BE-1" source="9VdiArjFIxK7xGmwB3Ue-1" target="9VdiArjFIxK7xGmwB3Ue-0" edge="1">
                    <mxGeometry relative="1" as="geometry"/>
                </mxCell>
                <mxCell id="9VdiArjFIxK7xGmwB3Ue-10" value="implements" style="edgeStyle=orthogonalEdgeStyle;rounded=0;orthogonalLoop=1;jettySize=auto;html=1;entryX=0.456;entryY=1.055;entryDx=0;entryDy=0;entryPerimeter=0;dashed=1;" parent="DDt3_GRIumfsRX5ZI_BE-1" source="9VdiArjFIxK7xGmwB3Ue-1" target="9VdiArjFIxK7xGmwB3Ue-3" edge="1">
                    <mxGeometry relative="1" as="geometry"/>
                </mxCell>
                <mxCell id="9VdiArjFIxK7xGmwB3Ue-1" value="Account" style="rounded=1;whiteSpace=wrap;html=1;fillColor=#d5e8d4;strokeColor=#82b366;" parent="DDt3_GRIumfsRX5ZI_BE-1" vertex="1">
                    <mxGeometry x="290" y="280" width="120" height="60" as="geometry"/>
                </mxCell>
                <mxCell id="9VdiArjFIxK7xGmwB3Ue-3" value="MobileBanking" style="rounded=1;whiteSpace=wrap;html=1;fillColor=#b1ddf0;strokeColor=#10739e;fontStyle=1;" parent="DDt3_GRIumfsRX5ZI_BE-1" vertex="1">
                    <mxGeometry x="380" y="170" width="230" height="40" as="geometry"/>
                </mxCell>
                <mxCell id="9VdiArjFIxK7xGmwB3Ue-7" style="edgeStyle=orthogonalEdgeStyle;rounded=0;orthogonalLoop=1;jettySize=auto;html=1;entryX=0.5;entryY=1;entryDx=0;entryDy=0;" parent="DDt3_GRIumfsRX5ZI_BE-1" source="9VdiArjFIxK7xGmwB3Ue-5" target="9VdiArjFIxK7xGmwB3Ue-1" edge="1">
                    <mxGeometry relative="1" as="geometry">
                        <Array as="points">
                            <mxPoint x="230" y="370"/>
                            <mxPoint x="350" y="370"/>
                        </Array>
                    </mxGeometry>
                </mxCell>
                <mxCell id="9VdiArjFIxK7xGmwB3Ue-5" value="SavingsAccount" style="rounded=1;whiteSpace=wrap;html=1;fillColor=#d5e8d4;strokeColor=#82b366;" parent="DDt3_GRIumfsRX5ZI_BE-1" vertex="1">
                    <mxGeometry x="160" y="400" width="120" height="60" as="geometry"/>
                </mxCell>
                <mxCell id="9VdiArjFIxK7xGmwB3Ue-8" value="extends (inheritance)" style="edgeStyle=orthogonalEdgeStyle;rounded=0;orthogonalLoop=1;jettySize=auto;html=1;entryX=0.5;entryY=1;entryDx=0;entryDy=0;" parent="DDt3_GRIumfsRX5ZI_BE-1" source="9VdiArjFIxK7xGmwB3Ue-6" target="9VdiArjFIxK7xGmwB3Ue-1" edge="1">
                    <mxGeometry relative="1" as="geometry">
                        <Array as="points">
                            <mxPoint x="480" y="370"/>
                            <mxPoint x="350" y="370"/>
                        </Array>
                    </mxGeometry>
                </mxCell>
                <mxCell id="9VdiArjFIxK7xGmwB3Ue-6" value="DigitalWalletAccount" style="rounded=1;whiteSpace=wrap;html=1;fillColor=#d5e8d4;strokeColor=#82b366;" parent="DDt3_GRIumfsRX5ZI_BE-1" vertex="1">
                    <mxGeometry x="410" y="400" width="120" height="60" as="geometry"/>
                </mxCell>
                <mxCell id="9VdiArjFIxK7xGmwB3Ue-12" value="ideas" style="html=1;verticalLabelPosition=bottom;align=center;labelBackgroundColor=#ffffff;verticalAlign=top;strokeWidth=2;strokeColor=#0080F0;shadow=0;dashed=0;shape=mxgraph.ios7.icons.lightbulb;" parent="DDt3_GRIumfsRX5ZI_BE-1" vertex="1">
                    <mxGeometry x="70" y="50" width="22.8" height="29.7" as="geometry"/>
                </mxCell>
                <mxCell id="9VdiArjFIxK7xGmwB3Ue-13" value="interface to power&#10;[ mobile / laptop /  tv / fridge ]" style="shape=image;verticalLabelPosition=bottom;labelBackgroundColor=#ffffff;verticalAlign=top;aspect=fixed;imageAspect=0;image=data:image/jpeg,/9j/4AAQSkZJRgABAQAAAQABAAD/2wCEAAkGBw8PEA8NDxEQDQ8OEA8PDw4PERAPDQ8NFREWFhURFRYYKCkgGBolHRUVITEhJSk3Oi86Fx8zODMtOyguLisBCgoKDg0OFxAQGi4dHh0yLi0vKy0yNystLSsrNzcrKy8rLysrLTgrLy0tKy0tLS0zLSstKy0rLS0tMjctKy03Lf/AABEIAOEA4QMBIgACEQEDEQH/xAAcAAEAAgMBAQEAAAAAAAAAAAAAAgMBBQYEBwj/xAA8EAACAQICBQcKBQUBAQAAAAAAAQIDEQQSBSExQVIGExRRU5HRByIyYXGBkqGxwTNyc6LwFSM0ssJjQv/EABgBAQEBAQEAAAAAAAAAAAAAAAABAgME/8QAKBEBAAECAwgCAwEAAAAAAAAAAAECERITUQMhMTJSYYGRIvBBobHh/9oADAMBAAIRAxEAPwD7iAQbAmCvMMwWywFeYZgWWArzDMCywFeYZgWWArzDMCywFeYZgWWArzDMCywFeYZgWWArzDMCywFeYZgWWArzDMCywFeYZgWWArzE4sIyAABWywrYWGAAFAAAAAAAAAAAAAAAAAAAAAAAAAAAAAAnHYQJx2BJSAAQK2WFbCwwAAoAAAAAAAAAAAAAAAAAAAAAAAAAAAAAE47CBOOwJKQACBWywrYWGARq1FGLlLUl/LGtliKtTWnzcdyW23rfgaim7Fe0indxltAanJPtJ/FLxM5J9pP4peJcMas5lXS2pk1Spz7SffLxHNz7SXfLxGGNTMq6W0BrObn2ku+XiOanxy75eIwxqZlXS2YNbzU+N/u8THMz43+7xGGNTMq6W0BqnRnxv93iYdGfG/3eIwxqZlXS2wNO6E+0f7vEi6E+0l3y8RhjUzKulugaJ0J9pLvl4lboT7SfxS8RhjVM2vpdCDm3Qn2k/ikVyoT7Sp8Ui4adUzaun9uosLHKOhPtKnxSIOjPtKnxSGCnUzaun9uuBx7oz7Sp8UiLoy7Sp8chgp1M2vp/bsgcU6Mu0qfHItpY3E0dcajqRW2FTzk17dq9wwR+JM6Y40uvJx2Hi0bjo4imqkdWu0ovbGa2pntjsOcxZ2vExeEgAAK2WFbCw1ukpXnCnuSzv1u9l9H3mUiGP/Gj+Rf7MsudJ4Q89PPUwZRgJmHVIGLmQrJkwAJAADDMMyyLAwyLJMhICLIMk2VsJdFkJEmytsJdGRBkmyDY3l2GRYciLkLF2GYkhcy2ahiZXcm5Za9WnunTz++Mrf8ATOpjsOV0B/lP9GX+8Tqo7BtOK7Hl8ykADDqFbLCthYavSdNyqQSdm46n7JNkej1eNfz3F+L/ABqX5ZF50mqYiHnjZxVVVLxdGq8a/nuHRqnEv57j2mbExy1lRrPt4ujVOJfz3Do9XjXy8D1ucU1FtKT2Rurv2InYY5MqNZ9vEsPV4/p4DmKvGvl4HqqVIxtmko31JyaSb6tZOwxyuVGs+3j5ipx/TwMcxV418vA9i+ZlkxyZcaz7eHo9XjXcvAdHq8f08D2AY5MuNZ9vC8NU4/p4EHhanH/O42DIsuOTKjv7a6WDqdp/O4g8DU7Q2bIMZkpk09/bWPAVe0+pB6Pqdp8mbOcti2t7vV1si0+tL2eIzJMmnv7av+nVO0+pF6NqdovmbGjXp1L5JxqZXaWWSeWXU7bGT1bPuM2e3pMmnv7al6Lqdp8pEXoqp2vyZsliabm6SnF1Iq8oXWaK62t21d5Zb3jNn7BkU9/bT/0qp2v+3iYeiqna/wC3ibgwXNq+wZFHf28PJyg6eKqQbzNUXr175we86qOw5zQ/+ZW/RX1gdHHYTaTeV2MWptGspAAw6hWywrYWHhxn4tL2T+xcU438Sj7Zf8lxqeEOdPNUyjmvKHjsRh8DVqYa6nsc47YJp+d7tvu9Z0qMtJ6mrrqetGW3w7kHja9bSGjZ4ivUrTVXEZFUd9XMVVePX6TPuJrp6BwjrUsTzFONag26c4LI4tppvzbX1Se3rNiBwflmv/TrraqsOu2x9Ry/ky01iquNpwWKqV4yzqvh6k5VssFB3n53oWlkV+t2PrGldFYfFw5nEU1Wp3UskrpXXs9pfh8LSp35unTp3283CML+2wFr3fzcYYlu9v2ZlgRDBgDDMMyzAEWRZJkQMHwfyxaTx1PSEoSqVaGGUKfRlCc6dKcHBZ5arXlmzJ9VkfeCE4KXpJS9qTA4jySwSwEcuxtt+k05ucnJ69e1s7VPUluW/rKMFgKNCLhRhGlFtycY6lmbu3b3l/q3LYQfAvKxjK8NK4hU6k6ccuH1Qk4+dzUerXvPqfk6qYiWCpSxGbO4QbzKzzW16t26667nQxwNFVJ1lTjzlS2edvOlZJK/uS7i+wGDDMmGBTob/KxH6cPt4HQx2HP6E/ycT+WkdDHYdK+PpjZ8vmf6yADDYVssK2Fh4sd6dH80vsWleP8ASpfmLDU8Ic6eaplEiKJGW2DieXnKutgJXpVKUYqlUvCdNzk62X+1Zp6ldO6tsV77n2x8e8oOhqvPyzqU4168VRag5U5utkpulNrXFNxXnLZdanrRmpYfV9FY2OIoUcRCWeNWnCalq13W+2x9aPWaLkZg+awkbQlRjUk60aMoum6UZpPJkd8ltlr7tets3ppGJbvb9mGYlu9v2YYGDBlmAMMwzJEDDIskyLAwRJEQPHpbFxoUK1eUlTjSpznnlsi1F2+Zw3k95V4jHT/vVs6UY5483Gnlm09Tt67bzpeXOjquJwValRWadlJQ1+ele8dW170utI4XyV6PlGjUyQq051K9NVecVnlpwmmvVacmrPX5jIPqwZkwwImGZMAVaC/yMW/VR+kvA6COw0OgPx8X7aP0mb6Ow6V8fTGz5fM/1IAGGwrZYVsLDx4/bS/UX0LCGkNlP9SP0ZM1PCHOOarwyiRFGTDYfNvKRpqrQxuBpyT6Nnu06ampVdVsjSzOdnKyW/XuPpR58Xg6VZZasIVY7cs4qS1bNTAr0PjukUKeIUZQVVZ4xmnGai27XT1rVY9hiKtZJWS1JLcgUYe72/ZhiW72/ZhgYZp9KcoKeGlUjOE5KjCnUqzjkyQpznlUndp7U9i3G4ZyHKp26fKLUZrD4V5ucjTatXvFtyTUFfN5zXXe9gOhrY9RpOrlcrTVPLHLmc+cyW12XpHkwOnKdacaWScJyliI5ZZbqVGajO9n1tWsRrwisPNRtbpbep6s/TLv91zWaIhB4ilKT/uRxGmIwWdN828SsystmtR1bveB1LIskyLAwRJMiwNXynr1aeCxlWg5KtTw9adJxipSVSMG4tJ3u7rZY5LkBOqujq7lHEYanjK89X93FYitXrS9loyhqXEtR35TRw1OHoQjC+rzUlq6iCwMXMMDBhgwwI8n/wAXF/mpfSZvo7DRcnfTxb/9IruUjex2HSvixs+X2kADDYVssK2Fh5NI7IeqpH6MmR0ivMvwyi/nb7kk7mp4Q5xzz4D5t5TuXmM0bUjQoRopVYSaqTjKVSFsuta7b3tW4+knkxOjcPVearSp1H1yipGW3xHR2nNIYjGaNniqlV01i8Ks1WcKa11It+amr3v1ercfe9e402O5L4GvFQqUIOKaeWKy3aaa1rXu9xudmz2AcZ5Wa8YaOlmlkzVIRjZtScnGVkra9tj5ponyi6ToxpwpzniakYyjVjiYurTlr8yUbWne17+7bfV9s01oPDY2MYYmmqsYPNG97xl1p7n6zMdB4NKyw9BJaklThqXVsA8PInTFXHYHDYuvGMKtV1VOME4wWSpUgrJtvZFbzeleHw8KcVCnFU4RvaMUlFX26ve+8sAHFcrMNj5V60cNho4mliMPQpuc6kIRpThVlJtxf4l046tW/XuO0DA5uVHFLR7/ALMZYvnOeeHjJU4TqdJ51xzNu19ev17NxrOTmDxzxcK2Jw8cPTXTZpRlGcozr1YzyuSfnbFry92x9NLTFBYhYNyfPNXSyvLscrN7E7K57mBhkWSZEDScs9KVMHgMTi6Ki6tGClBTTcG3KK1pNdfWfFdP8uNNVHGVWq8JH0VHDxdKLe9t3cm/f7D9AYijCpFwnFTjLbGSTi/ajwPQeD2PD0ffTjb6EHNeSitCeATjLM87z7b59ea99e2+07PXZX2bvWeDRGhcNg1KOHpqlGW2MdUfcj3Jetu2y+4D8+8sNIYyjpXSNTB16lLPXyvmJvW1CKaaXU4ta+o7HyYcscfjqk6GJlCcaMaTz5MtWeaTTzPY3qWxHd4fk5g6efLRp2nKU2pRUlnbu2r729vWeqjo6hTalClThJbHGEYv5AelmGZIyfuAzyb24p/+32N7HYaLkurwq1d1WtOUfXFJK/ffuN5HYbr5mNlyQkADLYVssK2FhGcVJOL2NNP2GuU3S8yd3H/5nusbIFiWaqb743S8axMOJDpEOJHqVOPDHuRnJHqXchuS1fZ5OkQ4kZ6RDiR6si6l3IZI9S7kNxavt98vJz8OtGekQ4kerm49S7kY5uPUu5DcWq7PN0iHEvmY6RDiR6ubjwruQ5uPDHuQ3FquzyPEw4vqYeJhxL5ns5qPDHuQ5qPDH4UNxavs1EqGFdbpLjDn0sqq5Xnta3fa6v1aj0PF0+JfM9/NR4Y/CjHNR4Y/Ch8S1fb75a54ynxLuZF42lxLukbPmYcMfhQ5iHBH4UX4pavWPvlqnj6XGu6RB6Qo8a7peBuOYhwQ+GJjmIcEPhiPiWr1j75aV6Qo8a7peBF6Ro8a+GXgbzo8OCHwxHR6fBD4Yj49y1esffLQ/wBSo8f7Z+Bj+p0OP9s/A3/R6fBD4Yjo1Pgh8MR8dJS201j1/rnnpSjxX9WWXgZVGtifMjGVGk/SqTVpSj1RW86KFKMfRjGPsSRIt4jhC4Kp5p9K8PRjThGnBWjBJJeovjsIE47DDp+EgAECtlhWwsMAAKAAAAAAAAAAAAAAAAAAAAAAAAAAAAABOOwgTjsCSkAAgVssK2FhgABQAAAAAAAAAAAAAAAAAAAAAAAAAAAAAJx2ECcdgSUgAECLiSAEMgyEwBDIMhMAQyDITAEMgyEwBDIMhMAQyDITAEMgyEwBDIMhMAQyDITAEMgyEwBDIMhMAQyDITAEMhJIyAAAAAAAAAAAAAAAAAAAAAAAAAAAAAAAAAAAAAAAAAAAA//Z;" parent="DDt3_GRIumfsRX5ZI_BE-1" vertex="1">
                    <mxGeometry x="740" y="30" width="145" height="145" as="geometry"/>
                </mxCell>
                <mxCell id="9VdiArjFIxK7xGmwB3Ue-14" value="" style="shape=image;verticalLabelPosition=bottom;labelBackgroundColor=#ffffff;verticalAlign=top;aspect=fixed;imageAspect=0;image=data:image/jpeg,/9j/4AAQSkZJRgABAQAAAQABAAD/2wCEAAoHCBIVFRgSEhIRERIVEhIRERIRERERERISGBgZGRgUGBgcIS4lHB4rHxgYJjgmKy8xNTU1GiQ7QDs0Py40NTEBDAwMEA8QHhISHjQrISE0NDQ0MTE0NDQxNDExNDE0NDQ0NDQ0MTQ0NDQ0NDQ0NDQ1MTQ/MTE0NDQ0MTE0NDFAMf/AABEIAH8BiwMBIgACEQEDEQH/xAAcAAABBQEBAQAAAAAAAAAAAAAEAAIDBQYBBwj/xAA8EAACAQICBwUGBAYCAwEAAAABAgADEQQhBRIxQVFhcQYTIoGRMkJiobHRFCNSwQdDcpLw8WPhU6LCFf/EABkBAAMBAQEAAAAAAAAAAAAAAAABAgMEBf/EACIRAQEBAQACAgMAAwEAAAAAAAABAhEDMRIhMkFREyJxYf/aAAwDAQACEQMRAD8A8tiiinYyKdU5jqJyKI3oJa6KfgH0lXiYdhnvSQ/AIDiZmauqwZoRVgzwBhlr2YfVxVI/8glYqE7Ifomiy16bcKi/WAe9XivI0OQ6COvM1JVMeILUrBQWO4XgZ0wCLqvrALaKUFXS1TdYQCvpCoffMfA1usOIvFMtoauxdrknLfLkOeMOAfGmBis3GO/ENEBEaZF+I5RfiBwgDzORvfLO94vGMEY0x2sOInDAGGNMeROWgDDGNJGEhd87QBpkNauiZu6IPjYL9ZMZi+0hJAY7e8I+R+0vOey3+J1rlk/rRjS1AtqrURmzyW7bOYjmx6bgx8gJhtFG1VOpH/qZqAJpjGbO1n5PJrN5BjaQ4L6mMONfkOgkAQm5AJsLm24cTGS5jP8AGV3r+iPxLn3j9ITg8QdYC5IPGVt5Nhn8a9RHrM5RnV7F+jyZHgatJUecjrGq0kVoIjyZWgBAaOBkCtJA0QS3ijAZ0GAOBnbzl4oA687GAzt4B8vRRRTpZlFFFANpox70E6Wg+JjtCPegvIkRmImSlfVgzwmrBngDsOc5ZYVrOh4Ov1lXROcPptmDzEBHuOGa6KeKr9JJeC6Me9JD/wAa/SEyFAdIv4SORlJh3ylzpDYZR0D9THAmcweqZMxg9UxgRoVvzDzUy/vM3oprVR5iaJzkehioOimKftBUViL7GIkidpqm+x8pXw0n55bC85eZZO1B3qJOnadN6/OL43+D5Z/rQ3nCZSp2jpHaCPMSZNOUT7xHlF8afYsyZzWMCXSlE/zB53ki4ymdlRPURcPonXPEzvfNxkAqKdjKehEdeATd+eUifM3nJ2MOgzPaZ0PWdT3aa57zWADKDbPj1mhWH4RLw+XxlTqd5/48xTR1ajUQ1Kb0waiqCR4SSbWuMpssDQLI6gXayEccm3S00ulOrTqUwQzILkAHwutnXPZcEAwXRtAlSQzL4Ccja9txjz5P9WW/yh+IwjAuxFlaly9oAZW8jKJxL98ICwBu2tTLZk5NY/aUVUTTxaZbQMZ2k9mH9Q+sjcxuvN/aZWiBkFfHBTqr4m38B1gWO0gR4ae3e3DpAVcAXJ37Zwa1/HpYx37q7p45+AI9Ibh8cjZE6p4Ns8jKim4tHZGTNVdxK0itHAzPUMVUTZmv6W2eXCWmFx6vkfC36Tv6HfLmpWes2LAGPBkIM6GghMDHAyINHAwCSK8YDHXgHzBFFFOlmUUUUA1GgH/KI4MY7EQbs8/gcfFeEYgzO+1QBVgzwipB3iDlM5w9TK9DnDVMBHs/Z99bDUz8AlleUfZJ74VOQtLq8iqBY7YZn6RzPUzQY7ZM4p8R6xwCCYPUMlJkFQxgsA1qq9ZqDMlh2s6n4hNZeKiPN8eLVHHB2gveLxEN034a1T+omVAIJvqG1vWdEv1HNZ90VrCcJg1M5NYWz2ScGPqa7ec1ojORk7rnifWdFd/1H1jDI3bKJQkYyoPeMkTSlUbHPqYFHah6iTeT2eflfS2o6brfrb+4wlO0FYe8T1sf2lEotHI4Ow7DY9ZWc5sLWtZvtpaPaWpvseqj9psezuO71STq3FvZBG2+Rv5Ty1Hzm37F1rBs+Ex82JM/S/Hu28q90XUVhXplQtRKzhxvYOAyt5g/Kc0Q3hGV/Da3lnC6/dBu8sneFdUNlrkcLyi0XXJOoDY6xUZ2tYzlzm8p+S/cXOJxWrsVbgWFxcjlM3VS+d7DjLLSel1QWARyosXdb3PLlM1T0jruc8twmubrM+v2eMTdvb6Wn4BSusGYnyEr62HIGsviXfxEsMPigN+UdRtruPdYBhyvKnl1L1tfDiznFNU484HjsRam3KWmlKGoCy+zv5c+kyelq/hI4zH9t/UaHCYy4HSWFKtMVo7H5DPZkZe4bF33wOXrTI4iqCVuHxG+8NSoDAx2E0iy5ONYcfeH3lpRxKN7LC/DYfSUuoLRhWOasZ3MrSAxwMzzVKlvbYjhrGcSu252HmZXyT8K0gMdeU+F0gb6r79jfeWd45eoubHzRFFFOlkUUUUAu+zz+2OhhteVmgW8TDissq5md9qgGpBmhFSDtEDQc4ahgENQ5QKPVewz3wyjgxE0d5kv4fPegw4OZrJN9rgbGbJmX9szTYvZMxX9swgqcmQPJLyJzGA4azKfiE1ynIdBMc5zHUTXUWuqn4RFSjC9pU/PccbGU6KwFrg8Je9q1tXvxUSkJm+fxjn1+VMRDnci54R4ivFeUSKrre7Ope3i2xxM4TAETGOpIsI9FvCFURa1w856iSmdpkhMcY1lmdvWkzxEx29ZBhKeqCL3Ba4hD5CR0zlL8ftHkNr0yxQg21WuTymx7IVM3HITJ3mh7JVPGy/DePyT/Wp8d/2iv7VY6oKoCq/eJUYh0Zgb63guNhAF/wC4S6wtRi5QmxNQg8rnP6y2xGApM/elb1ABnc2y2Ejj9hM3VqEV3GwhwR1KgzLGetPN6gnTOkVF0WmmoCVuRdzbK95l8LiijsLmwa1/peaLSGJVlLd2uvva5tfjaZGs7UqpJsb+0DmCDnDWPoeLXK2OCxotfax2CWuFfeTmdszGi6qkX2cBLylVtOe13Zi3qIGFjmDtnmvajCPSqav8trtTblvXqPtPRKL3EB03o4V6bUzYMPEjHcw2fbzhL9jU+nmNJiDcecsMPjyON5X1kKMVYWIJVhwIyjg2+XZ1lnXG1wuJuouZYYaqZksHisrzQYLXcAk6o4e8R+0y42laGlUvvkozgVBrZA3hKPGKndgBlAXexv6wh3yge02gIJL5S1wukTqLfba0oNa2U73nOOXibOvG4oop2OUooooEsNCNZ+qmWtcyl0U1qg85b1jM9e1QJUg7SeoYO0QNhdM5QMwqkcoFHov8On8DrwYGbO8wP8OXzqLyBm8vJvtUR4rZMxi8nmlxGyZjH+2I4KeDI6hjlMjcxmFqmarBvdF/pEydaabRj3pp0ipRnO16/mKeKTEJTd2bxlbGbvtiuaHkRMVgzZ3HO80z6jLX1ab/APnv/wCUx2BdgzIx1tXYYfeAU8qzc1EvnEd6a+EqEkioQL7JDVp1UGualwLZSzg+PF0bpFYco7D7AeIvIk12zDWzIj8Mw1VF89UTlI7R8RmWr2tczkPpI982uJyoz6xVSBYDbJA8Fd/GeaiHD6irmoMywkmGe6g8ReQ4l907gD4F8/rNvHOMfJeiry77LP8Am24qZRXln2ee1dedxL1+NRj8o3bbJjsfliH5qh+Vv2mwmR0wLYi/GmPkzTHxfk28v4inWlq31arDjkF9ZldOUwzFgCBYDPPZNmEcgD+WaQAFxbWtM7pTCkZNqkkXyN5rOX/rHXc/8VugsT7rHZNMlYHIf9CYViUe+7fLvA44mw9LTj8mfjp3eLfyy2OHfVt8hLIJcXO07ZQYOsN5uZd4arcWmba1gO2+C1KoqAeFxn/Wu35W9DMutQ7J65p3Ri4im1M5Ei6N+lxsP+cZ5YmjqneGkylHU2e+xRx58uM1zqc+2O83vZ+xWhWJYg+yLHzm0whyH2zlXg8FTpqAPa3sdp5y5wziwtM9WW/TTMsn2LQ8rQuncyBDCl2bolVxxBwucnY3kTcoEidYz0kwgzXjDyKKKKdbkKKKKATYA2desuqplFhjZ16iXdUydGGqSBpNUkDSSphhNE5QYyegco6I2n8PXtVccUnol55j2Fe2JtxQiemXk1UNrnKZjSntiaarsmZ0ttHWEFNQ5RjmcQ5TjmMw1UzQ6Fe9IcrzPVZd6Af8u3BjCgD2wXwIeDETDUUIqMdxE33a1b0geDief6xFa24rLz6Y69jS0DKEVQ24raF3gVc2qp0Mus4MvGumsCvERXkqDIw16PM+z6FIWUnaBYSCpU1WIsTc3FpNQcBBcgbom2zFuGbFH9LQbEVDcOASLWylg+yA0vZ8zHIVBHEsWHgY8pYYA+Dzbyz2SKj7UkwfvjhUaa5Y6FQ7Q7WrIfigEIwLWdD8Ql69Jz7ei3mU7QZVUPFXHoR95c6Uxxo6j21kOsjL8RF1PyPrKHS7ErQdjdiuZ4llU/tMfH+UbeT8aLoUqbKLuS1s11gufAXg+Jw66wHdugsTmynWtbfe3+53CvSC3c3fPIqzAZ5ZRmJdXI8btmQfDZQLbABNp35fvjG8+P6ZvSuGsTYEcjtgGHrFTqk9DNJjqQuQNm0ecz2Nw9ot4+UHj3c6X2j8Wcs+E0ODxezP/rrMFgMUQbGarA1NYc5xazyvQzrsa2lVuIDpTRqVFuPDUGSuBn0PESHDVWH+cIbTrgjbvkLZDE4GrTbxMrC1xkRflLHAV7i1j6Wl5iaaONVgD/m2UjYVqbXU3S5y3qeEAtabiTo0radSFpVHGMJ2Ma5jdcHKcc/4IAifnItQc/WPMbqiAePRRRTrchRRRQDtM5jqJdOZRiXBbIdJOjROZE0kcyJpJUwyegZAZLRMdEaTsc9sSnO4nqd55H2be2Jpn4rT1q8mqhVDlM3pn95o3OUzmmhlCChqZyiYyOico5jGQeqZb9nm8LD4pT1ZZdnm9sdDChN2nW9BuRBnnVbKqp4ielaeW9B+l55tjKLEhk2iVj0jfsZAcZ7aHnaRalc+8BOphahILtexvLt6iTg+TocpBJEOUNehn25QQFc87EybKRILDLrHMoIsZk1rjuvEesCQ5HgCYU2GThImQWsBlHOi8BLiUDZtJsNUHjYZi4I9Iz8Ol/ZHpDEQAWAAHACa5Y64ip1ySBzz9PvDaJ8Sn4hILTqvmOUtDa6eTWw9/wBJR/2/+pVaYX8mgeHd/NDLHSlZxhrqAQUUPe+SnK45g2lRiqzvhlZreF0VbC3hWyet7zHPuOjf41PhkuqHVvaoQ2V8jbbOuhVbEEfnAjdcHKV6V3AsGYDbYEiceox2sx6kmb8vXP8AKcPxntX3EZZ33kftK/E07iTmc1CdgJ6C8v8AXEe71RJQOvYcCfIC5MudF4mxsd2UI0Vo5zWDshFNQ+trAgNrKV1Rx2wDH4ZqNQgg6t/C25lOw348ZxeWfbt8N+vtrMO9/lsj+8KjzHrlKDR+P2X5S8pOrDbMeOmUUuLH+pHWqAgwGspBuP8AcYKp+8XD6nQ9ZMHyv+1oJrxyvADkqydXlcpvyhdNss4BPf7xs5TYm+W/LpH2iDxyKKKdjkKKKKAKWiHwjpKuWFI+AdJOg40jaPaRtFBTTJaMij6JzhQtdEPash+MT2BTPGMG1nQ/Gv1nsVFrqp+EfSKqiVpQaZGRl6TKTS48J84oKqsOcpKxg+GOUmYxkgqw3s+/jYcoBUhOg2/N6qYBd6UW9Jx8Jnnc9HxQujD4T9JgPwjE5Ded4lYR5IHivDU0VVOwD+4QinoCsf0jzEvsZ8qpj0l2nZipvdRCU7L8anoItanFZzes8IjNQvZynvqOegAkyaAojbrnq0jrT41kGjdWbZdD0B/LB6kmTrgaQ2U0/tEOj4153qEnIH0hCYeodlNz0Uz0FaSjYqjoAI6VN8TfH1hF0ZiDspP5i31k6aCxJ/lherL95tLzl4v8lP8AxQMlD8ru3tnT1Gsb7RbKUmlcIy4XuwQHVFJO0a2sGJ9bzQsZX6VW9N/6G+kXVWB6GFp5XRTkNucLWhTGymn9og+HbWRG5AHyyhN4fKl8Z/DgoGwAdABETG3igbt5Bi6AqI1NtjKR0O4+smnIgwK3RyjZFWKnqJe4DE85B2owmqwqjY3hb+oDI+n0ldhKtpnqNc1rw4IkT0gc4Bhq+WcPpVIl9Rd0ePyj0EIjdSIyprCUUekHQESek2URilkn+bJAj5Thq8oB/9k=;" parent="DDt3_GRIumfsRX5ZI_BE-1" vertex="1">
                    <mxGeometry x="720" y="260" width="342.13" height="110" as="geometry"/>
                </mxCell>
                <mxCell id="9VdiArjFIxK7xGmwB3Ue-15" value="" style="shape=image;verticalLabelPosition=bottom;labelBackgroundColor=#ffffff;verticalAlign=top;aspect=fixed;imageAspect=0;image=data:image/jpeg,/9j/4AAQSkZJRgABAQAAAQABAAD/2wCEAAoHCBYWFRgVFRIYGBgYGBgaGRgaGBgYGBkcGBgaGhoaGhgcIS4lHB4rIRoYJzgmKy8xNTU1GiQ7QDs0Py40NTEBDAwMEA8QHhISHjEkJCMxNDQ0NDY0MTQ0NDQxNDQ0NDE1NTQ0NDQ0NDE0NDE0NDQ0PzQ0NDQ0NDQxPTQxNDQxNf/AABEIAKcBLQMBIgACEQEDEQH/xAAcAAEAAQUBAQAAAAAAAAAAAAAAAgEDBAUHBgj/xAA+EAACAQIEAgcFBwMDBAMAAAABAgADEQQSITEFQQYiUWFxgZEHEzJCsVJicqHB0eEUI4JUksIzk9LwFUNT/8QAGQEBAQEBAQEAAAAAAAAAAAAAAAECAwQF/8QAJREBAQACAgIBBAIDAAAAAAAAAAECESExAxJRE0FhcQSxIpHh/9oADAMBAAIRAxEAPwDs0REBERAREQEREBETA41jRRoVKp+RSR420/OBxn2icVNbFuA3Vp/21100+I+t/SeTEu4moXckm5JJJ7ybmW7TswqCe2VDntPrIEygkaX1rsNnYeZkzjKn/wCj/wC9v3mMTMjA4VqjZVIBtfU2v4TOWUk3STd4W2qsTcsSe0k39Zn4bj2JQWTE1VHYHa3oTJf/AAlQmwKE9zHw7JFeC1CSOr45tL9k5/Vw+Y16X4ZadMccu2LfzsfqJm0PaDj1/wDuDfiRT9JocRw50QO4ABNgLgn8pihZvG45TcSyzt7VPabjBuKZ/wACP1mVT9qWIHxUaZ8MwngmsNh5mW5r1R0qh7U6hNjhUv8AjIv+W8vr7WF+bCHycfqJy0y7UYMBoMw0NvmHae+S4wjr3B/aXQrVUpNRdC7BQbqy3OgvbWe+nz10FwvvMfRXkrZz/jt+dp9CzNUiIkCIiAiIgIiICIiAiIgIiICIiAiIgIiIFJ4H2q8TyUFog61Dmb8K/wA29J76cJ9onE/fYt7G6pZF/wAd/wA7zWM5SvKiSlBJLOgBIKS8BItDLMSpQ90qMnXLEu9tVF9LdukyKJwwd2u2XIMg1vn56zDwXDqlU2SmT37KLb9baXq3CKiOquAoa3XvdQL669089mNvrvn9ust1vS/hzS6maowvf3huey4t5y7SSmQWWsyrduqT1hYaG1tbzCxtKmrWp1GcdpXKL93bMaT6G+d099fZfxeJzqguSVGt7Wv3CYhEmZEzvjjMZqOdtvNWzImXCJEiaVCDK2lDIPTdBuJUcNVqV6psVTqrbVtbtbv7p17g3SnC4kD3Vdc32GOVx/iZ89ES29M7qNRrYb+ImMoR9SSs+cuE9LsZh7ZMQxUfI/XX8573gvtWQ2XE0Sp+3T6w81OsyrqETUcK6RYbEf8ARrox+zezf7TrNvAREQEREBERAREQEREBERAREQERMfF4lKal6jBVUXLE2AgYnH+IChh6lU/Kpt4nQD1nztiXLOSTckkk951M6B076XpiKa0qN8hYsXOmYJoLDsv9JzvnOmM1Ge6AS6iwiy+Eta43275oq2RJ0EswJUEAgkHY9xlZQmRXo8X0hQIqUaeUjmT1VNtQqjfxM0WJxbuQXctYWF9gO4TH30Am6w3RyodanU3AU2Ls2XMFtshI2zHWcdePxT9/7b3lm1NGmzsEQXY7DTX1m4p9H3907PmWohXLT0NwddezQMeWgvL1TiNDD2GGUO9x12BYsDr8QIIIIsVsAb7SzUp4isC1QOiKFsiIzHI7t8KXBZAQ2502nO+XPLmcT89tTGT81pEUsQqgknYAXJ8BL2OwT0iFewYi5UEFlvtmA2JFjNucXQoo9L3Yeor5feIcpYDUOrkEoflKjQgmaTE4x3CK7XCLlXbQdl9z5zrjllletT+2LjJPysmRJgxedWS0iRKiVlEIFxqJK0raQY1WnzHmOz+JatM/LMerTtqNvp/ExlNLtZRiDcEgjYg2I856XhHTnG4ewFY1FHyVOsPXcTzRlJkdj4N7VKD2XEU2pH7S9dP3HpPccO4rRrrmo1UcfdYEjxG4nzJJ4fEujZkdkYbMpKn1Eo+p4nCOC+0vGUbCoRXQbh9Ht3OP1BnY+AcWXFYeniEUqrgnK24IJBHqJBtIiICIiAiIgIiICIiBYxVbIjOQSFUmw30F5wjpXxqvi3JZzkB6lMaKOzTme8zvs8V034JhkoVMRkCugupXQMxNgCNjqZrGz7s5bcexTW0GygKPLc+sspTPObHhdJHLBtXFiB9T3/pIV6BBIM6aSVjqJK8FZQmGgmRvKEyF5BK82lCliHRS71f6djlZgWdVCnmgJsARzEscF4l7ipnyhgQQw0DdxVvlINv5kanFKrLl94wUs7GxsWLm7ZiLX8NpyzmWV1JP21jqc1sahoUM6fGTZkdCM6nkpfTKQQGuNw2s1nEOJPVfOxAbKFOW4vbc2vuTcm2msw5Ey4+KY83mmWVvE4VJlM0oTKmm2XPkbKTlDWOUt9kHa/dN7iF5UTOHAcTbMKDkWvplJA71BuDqNCLzBemykqylWG6sCCLi4uDJjnjl1dlxs7TAgyIMuCaRQiJK0pAqBK5YUwDAzMClNENTOUdW12YFW0AyH4h53E1fEcX7x82VVGtlAA37SN5fMxK9O2o2+k4/Tky9m/bc0xzIEyrtN90W6MvinDMCtIHU827l/Uy7ZU6M9HXxLhmBWmDq22b7q/vO69GwEpikFCqmigbAdk1WAwaoBTpqBlAH3VE9BgaIQWHme0zPNuxsIkVkpoIiICIiAiIgIiIFJzX2tcTstLDg/ES7+A0X87+k6UZwDppxP+oxdVwbqG92n4U0/c+cuM5StAlUqwcGxBuDN/hai1kzAAEaMOwj/wBuP4nnWkMDi2ovm1sdGHaP3E7Ss2N1iaJExGm7cq6hl2IB9ZrMRSizRKxCJAy4ZAzLSkpKykAZAmTM2nRpE99nqOqhFJXMyL1z1VPX0IFyfITGeXrjcvhcZ7XTK6O8KVi5q0ahZLMEZSEYHQ6NbMw3sTY6T2TUcqhHXNa5yZFs2oamttgwygAi21+V5ZpOouodXyMFBVgQCwBtp8Oa99+3aUquVa1zqdBffZCLLYizMp+YAKG0uCPi+byZeTLb24YSRlVaihsxBbKCBfLkN9xrbcJe58b2vbnPHMPVSs5q6s5LBxfK4uRdb7AWtblbwnuUxYXqm4OZQRzW5urZGvYA6jfVWsMoJHnukOEqVlV1puXpko6AEnXUOObA7X2tl7Gt2/iZemXPVY803i8ysuAyFSmyNldSrD5WBU+hkgZ9aXbyJXiUvEorKiUEEwK3kS1uzvB2PcRBMtsZBt+jPRgYmqSXAppYst+vr8p7vvc/G9uqYLDKFCUlCootcDkOS/vONYDHvRcOjWI3HysvNWHNTadk6Ocap4mkHp9UrYOnNG7O8HkefjcDllNctTlusOgUWAtM2iZgK0zMOZJTTOWSkFk5pCIiAiIgIiICIiBo+l3E/wCnwlWpfrZcq/ifqj638p8+1jOoe1viWtLDg6C9R/ov/Kcsfebx6S9qNJYTBGs601IBYmxN7CwJJNuVgZGVSoVN1YqdrgkHUWOo7ou9cH7bTh+ag74eoRYFdr2DOAQNdr9naJn4incXnma1R2Fi7ctMx5AAegA9JseE8RzDI/xDY9om8d2ay7Zy1LuKVksZYaZuIXX6TCcQsRMSl5UTKkgwlyQMDJ4XxF6D5kAINrqb2NtiCCCGFzqO0jYkT0mE4+tZGTJkIBJQ9dHS+qjYbE2Fhy1IvPINPQdDCuepmBzBFK2FyBnAY3+UAlDfzuACZ5f5PjxuNy1zHXxZ5bmO+G5PDw9nV7gjqZiTnpP8dOrztmLWO4Otr3vs6SKuVTZgosSwF9AcoNrkef3ucxVpOruWdirbKWzWAJ0UKqgD4uZOguRsbFXihIIopnNyC9wKane7OBYnW9he9zYgz5lxzy4l3HplkZtVEanUNZsyFC6g3cjqdUqH+FtbABVOa3bac8ZGXRlKnsIIPoZvK+OVSTXvUqo+lMi1FbX6wtodwQxzEgagXuNXj+IPWYM/IWXtCjYFtz/Jta8+l/Gwzx38V5vLlKx5IyAlTPW5JXlCZG8peBIy25kjIGBG8y+EcVqYaqKtJrEaFT8LrzVh2fTeYZlJOx3PgXGaeJpipTPc6H4kbmrfoeYm+wzT594JxiphaoqUz3Ohvldean9DyM7Z0e4xTxNNalNtDoQfiRuasOR+u85XHVb3t6anLks0jL00yREQEREBERAShMrMXHUi9N0VspZSobe19L2gcH6Z8S9/iar30zZV/Cug+k8+J1ZvZUrG5xjeSD/ykh7J6X+rqf7EnTcRyeUnWD7Jqf8Aq6n/AG0/eWqnslX5cYfOkD9HEm4OV2llwVIddCJ0+p7Jqvy4xD402H0YzGq+ynE/LXot451/4mJUvLyGGxIqJ3/SW6gnr8N7LcYj395Qym9wGe+2lgUtvPMYzDsjMjqVZSVZTuCJ03LzEnDAlRJOJCYrSUpaBF4ECJRGKkMpIINwQbEEbEEbGXCJTLJYNth+IBw39TXqva1qeZsj+JB7l005HW1pjYvizuoRQqIARlQFAR3rcjtOnPtsLYNpS0xPFjLvTVzutKASQlInRlK8XimhYhVBZibBQCWJ7ABqZt8PwkKAajqWIcpSVx1ihXOrVFuA4BvkHWO11JEzlnjj2sxta7DYR3zZELBFLMRsoUFjc+AOm5tMe832K44bouGQKqAOOrfI6h7ug2HUbUsvK52vLNPh2W9SqEfLlqGmtWkA6NcsVyPcNqCFCgWB1NrTnPLZzZr4n3a9d9NV7lsjPlORSAzW6oLbAntPZMzinCjRv/dpuL26rWfuuh121uLixGusvYniKp1aWR9HVn90iK6OFyo9MdVypBOYje24FzqatRmN2YsdNSbnQWA8LSy5ZXfUS6i2ZSVJlFBJAAJJNgBqSewDnOjKk9j7N0r/ANTmS4pWIqn5Tocg/Ff8r9svdHOgNSpZ8TdE3yD42H3j8g/PwnTcFwhKaBEQIqjQAWAkvRG4wz6TKE1WBq3E2amYlaqcREqEREBERAREQKWlMokogQ92I92OyTiBb90OyPdDv9T+8uRAsml3n1M8D7ROjOdTiqQu6D+4u5ZR83eR9J0ORIvoZZlqpZt81unpLDLPbdO+jf8ATVc6L/ZqEkfcY7r+08ayzr+Ykq0DJiRlTMqlaVkbxeBQiQMmTL+CwT1GCrYXvZmNlJHyrzd+xFBY9kmWUxm6SWsUmZ/C+HGq+RmyWsTdWL2te6qBtaxubbi17gHYUhRoAOoDsQjo75gKi3PvEQBSKLAjLcksCOVwZr+I4o1nFR1y3OU1CD1rfbKLZmUEC6rewF7nWcffLLqany36ydthUx9OgpSimViGGYOPeK6lQc7gXOV0JGQhHVrEbzDWm9X4uqhvU90jKDkFy70qLtbk5sO+wsJKvgERcrOgOZruwc3p9U03oZeq4IzHtuQDbeYLY9ygS46qlA2Rc4Q3ume2bLqeexI20mccdzjv5q2/LMxdQYespoP1Qq3IN1dW1swJNwykAqwXn1RpNfiMUXsvwopYogvlTMbkDMSd+0mWJSdscZO+b8s3JWUJmVw/h1Wu+SlTZ2522HezHRR4zpnRv2colnxJFR/sfIvlu57zp3TTFrwHBOjdfEkZEKofnYGxt9gbt9O+dS6MdDUw1nygvzdrF7Ebdi8vh7wb7z09NETRRc6aKOza5k8ztt1R3an1hEsqINSB3c/SWK1RnBCjKO07/wAS8mGA1PqZJ2AGgkrTX4AkGx5aGbqntNNwxSxLb3JP5zdoJzkaqcRE0hERAREQEREBERAREQEREBKGViBgcW4cmIpNSqC6sLd4PIjvE4Pxrhb4aq9Fxqux5MvJh3GfQ08r046ODFUcyD+9TBKH7Q5ofHl3zWOWuKzY4c4kby/WQi9wQRoQdwR2ywRN3ghBgQZFRvMzB4uuqulJ3ClesFvZQDfNf5Nz1hbQm5sTMynwV1C1KyOad1z+7uzqrqWD3ClSthrY32BsTLuJxq0RUpI6sGuB7vQIwVULq5LXDg1AVuTZhqDtxyzmX+Mm/wCm5LObwtU8KqOz4i7srg1RcfDU+Cqr3tU1N7GwNxuCSK47iiKWSkilLhgCCaaOrHr0kIXKCtrgixN9NpqXruVVGdiq/CpYlV/Cp0G/LtlsmJ4t3d/4e3wrUqMxuxJPf9O4d0gYvN/0d6JYjF2ZVyU+dV9F/wAR85/LvnWTTFrz6KSQACSTYAaknsAG5nuujXs7q1bPib003yAj3h/EdkHqfCe76O9FcPhRemmd7a1X3/x7B3C3nPQe5J+I37th6QzvfTA4Zw6jh0CUKYsOwWF+0tzPfrM00mb4jp9kbfzLjuqC5IAG5JAA8zNXiOOrqtNWqHtHVT/edx3gGDTaJTVZZxOORPjdV7ASLnwHOacjEVfifIv2U6vq2/paXsLwZF1yi51J5nvJ5xoVfjBY2p02b7zdUeQ3/KSTC1Knx1CB9lLoPUa/mJsaWFA2EykSS1ZEMNQCAACwGkyRKASUy0REQEREBERAREQEREBERAREQEREBIkSUoYHLfaV0byk4ukvVOlVQNjyfz2M5wyz6Sr0VdSjKGVgQwOxB0InD+l3R5sLWKAE0361Nu6+qk9ovOuN3NM3ivM2hpUyJkVefFOUVC3VTNlFhcZzdhm3sTrl252uZjGVMlh8O7sERGdm2VQST5CZkk6W1bJmZwvhlbEPko02dudhoo7WY6KPGe56N+zR3s+LbKu/u0PWP4nG3gvrOlcP4dSoIEp01RB8qiw8T2nvOsrO3iejfs6SmVfEEVn3ya+6U/V/PSe9TDgAX5bDYDwA0mFieMoLqgNRuxPhB+8+w8rnumLkxFX43yKflTT1f4j5W8IRscVxCnT+JwDyUdZz4KNZrqnEqr6U6eUfbfU+SDQep8Jk4bhSJy15nmfEzOSiByjcXTSrwpnIaq7OR9o6DwXYeQmxo4JV2EzQkkFktNLK05dVJMLJBZNrpFVkwJW0rIpERAREQEREBERAREQEREBERAREQEREBERAiZp+knBVxVBqTaNujfZbkfDkZSJYlcFx9Ao7I3xKxU22uDaYl4idb2mL1XRXoRVxYFQsKdG/xXBdvwqNvE+hnV+B9HcPhFy0qYBPxMdXbxb9NoiYouvxQMStJM5BsSTlUHz1Pp5y0cA9X/rPcfYXRPMfN53iIiM+hglUWVQJkBIiStKhZILESCoWVAiJFVtK2iIFYiICIiAiIgf/2Q==;" parent="DDt3_GRIumfsRX5ZI_BE-1" vertex="1">
                    <mxGeometry x="680" y="405.55" width="291" height="161.45" as="geometry"/>
                </mxCell>
                <mxCell id="9VdiArjFIxK7xGmwB3Ue-16" value="" style="shape=image;verticalLabelPosition=bottom;labelBackgroundColor=#ffffff;verticalAlign=top;aspect=fixed;imageAspect=0;image=https://i.pinimg.com/originals/44/0c/66/440c6604ecc689d4cadcd0d7fad659ea.jpg;" parent="DDt3_GRIumfsRX5ZI_BE-1" vertex="1">
                    <mxGeometry x="110" y="520" width="177.94" height="190" as="geometry"/>
                </mxCell>
                <mxCell id="9VdiArjFIxK7xGmwB3Ue-17" value="" style="shape=image;verticalLabelPosition=bottom;labelBackgroundColor=#ffffff;verticalAlign=top;aspect=fixed;imageAspect=0;image=data:image/jpeg,/9j/4AAQSkZJRgABAQAAAQABAAD/2wCEAAoHCBYWFRgVFhUZGBgaHBocGRwcGhwcGRkeHBgcHR4eGh4eIS4lHB4rHx4cJjgnKy8xNTU1HiQ7QDszPy40NTEBDAwMEA8QGhISGjQjISE0NDExNDE/NDQxMTQ0NDQ/MTQ2NDQ0ND80NDQxNDQxND80NTQ/NDU2NDQ0MTQ0NDQ0Mf/AABEIALcBEwMBIgACEQEDEQH/xAAcAAABBQEBAQAAAAAAAAAAAAACAAEDBAYFBwj/xABDEAABAgQEAwQHBgYBAwQDAAABAhEAITFBAxJRYQRxgQUikaEGEzJCscHwUmJygqLRB5KywuHxFDND0iNjk+IVFlP/xAAZAQEAAwEBAAAAAAAAAAAAAAAAAQIDBAX/xAAiEQEBAAIBBAMBAQEAAAAAAAAAAQIRAxIhMUEEIlETYUL/2gAMAwEAAhEDEQA/AMwD08j8i/jEqcO7Pyv8PgYYcm/x1+uZhAkM28qaGkj5RCRhM/Jjz0O31OCyS1DdeRtrrUtSFb6/Yb2k72hj/jRw3Vv2O8EpQW6ts/SX9OkOzMN/8So3gzPrAyYF7vpXZxPxrCUW8RK3nlBpvFQYazfC3lKXLnCCWPzo0tm2vDoANNtCb31ee52EOUC+nX/bnqeUAASK7VtRrfveHUoazP0cxErDkGEJzsTN2bUi2Y21gSv6NtpkkzmzQEOJhvbR3FXnpI66AC8Dhry8nvRp2JAa1ImUG/3QAz52fUypEOIGu3WZMq3Op5tAd5GJ69IQqWMEgIWf+4BIIUogDOKJVoWNjE/o9htirw5grw8ZDNQ5FNI0YpYC844WAp5X0lrsFHznHe7N7QT63DXiEDEQoKCyPaSmqViubK6QvdjKYsOYwkK6OXpacr1NSYShcDR5ENY0SBYXi12jwwwsZaHYIVL8BPcMqd0hhu84rlDiYD3EizDcF2e14qlB1nLnobk9TQPDIVIixa9JBikeQbcweIitd6jY1KQZwD3+E2LsaX90AHeAlQZb1k4ZiKMLUmbGEV73uf3USLeUMFpuB0oABYaWG84Qez2MnqGBHdSB5mpgDSufk2r1E9S50hx08NZAgHdgBpOAKqiW8xMaNM218LkgzPiGqXl4mg2fWAlwxceQ56J+miQqY+YenmX3aTsBEXhszNItLaiRrODCpf4IHOQEBIhw/wA6v7THf3j0FonCmmPqVwBoxrFdCxOYfozVnUtNz0iQJYv8ROfO5kToAICbMNnM2JDeaqUpodYmSu7c7WqehzH8oiBIG7M9Sx8xD4Zrd+U58zdn5QFxGLJ5WkWfWbTjndsdmZ050jvpDD74Fucw0XMJenn4vzIc9YtpIlpeY5G779BEWb7Ulsu48+IitjovGl9Iezsv/qpEjNY0JLZm0J8+cZ9Rf5xz5Y9N068cplNxTwlsYsECIMRLQsFdogSZYUSNCiB0E87fXwPntDeA8rdPnDBvr9vDyESH9o7XGVNvIT/lB84kH0bjfx1qdhDCUx4/5Hj7UOki077bzAbq5NdYAgPhZ7k6ESrzmYUrc/N6j/yggG8KktRq/PQQxGzkftyLVtRxFQkisn2H0W0cmUED18jOnKQpYTvEOIrxGrOJvLMTvaFM1Fau9y5qA9JnQAQEyzcTG+/MtykSwiJR5jowrL7I+uUEFSkTzodZ6WfQMIZSR4tYB6bE6QApLtpqJ66SewGr6REtQpSZs4DTbkH6mJMTEapbrt94v1aO/wBleiGPjJCzlw0FikqfMdCEiws7TnFhmM7F7UnaQNyBF/CVKVJyE7T9kAecbjhvQDBHt4i17JZA+Z87mOtgei/CopgpUdVkrP6yYdKNs5wmTiuHCVEJxsEAJXqh2AU1h7LzKXCtRFHh/RrilFvVFNASVAJLPqXKRZqu8azj04OCl1rRhIqCSlATuHYf4cRF6O9uMo4CznAf1C0+ziBnyJKmBUBQPs8To25vDeg6/fxEI/CnMfEgfGOngehOAPbWtf5sono0x0MagwLxOojdcc+ivCkf9JjKYWsENS9ox/pL6OHhiFoObCUWBIDoLEgGTM2Yvc9H9IeKnbfC+t4fEQGJKSUuHGZPeT5gRFhK8kSTQP8AqbTYDX94dJtedCHs9Ce9QeMOBe+pZ7GZLzlYXh3cNPzYcvZEUXIvVwLm4DXbQFwBczgkCdBWkjKUnImztzJgSKzpKxAAvJ6PIavEjbsaVMmmxOgDkm5YQEoN2LXqRNnFADD1OrvL4jmW6AQCGcD/AMXnOk2MWFHUGXO7UJArTrAMhVC/1R33Mhq0ShUi5PjLzUIgQelelnH9I6xMk+I0cO3ITqz7QBoWZX68qtRyw2SmLnDYjSfS5c7y1rFdR1pzY6GZVvpCQsibTPnO3MgDkmAtY+GCCFBwXcHQh/CXnGK7U7O9WthSqDqnQ7iNonEcAPKzTcO4cAafKKvHcIMRGQyk6CbEfJjPnFMseqLYZdN/xhMZDiKag0dbGwiCQQxBII0IihxKLxg6qBOOYUDCgOyn6585jqTKCQZac5C/k3luYC9Z218C58vhB0Ol+VaPu3M8o7HEJp3/AGlyOtoO+s+ZpvmPkKQCd9pVew53ruYdPVuRb+1PxgJEu+k9NdH3fmTZmgVV8f2k9Q5bdRhwHFt2+RADScO8IFvKknbTSjDQTioYkgXFdWFfshPxiIAvykWAMrPlcnWsSKQ4cAM2xk5oSDKRZrcxD4gb/LsOiiA24EEhTKf1IhzuNdSwgcTEYV1kT1NwHm5eUCSz7bOJOxkBTQPMiK3EmX00tdhc3MBd9EsuPx2FhqmhyoiTKyh2LCYfePcBHz16I8X6vj8FRJ9vKX0IvPSPW+3fTnhuGWrDXnViJAJQhB94AjvKypMiLxfFXJqiYododnoxVYalLWn1SwtIQsoCiAzLA9pO3yJB8743+KijLC4YAfaXiT/kSP7o4PE+nfHYn/dSgaYaEjzXmUOhjXHjyyUuUj2HicFBOcpTmZszBwNHq0Zjju3OGQSheKhSalIOYgihAQ5SRYiYjzTF4nExZ4mItf41qWOgUSBEa0x0T4l1u1jef8j2b0a9J0cSgpQStaFZSGCVqSTJbKbrS5Gkcn0h7f7QTn/4nDYWKhOYFScQ4i05SxSrC7iwv7ozUvHmvY3aq+GxQtMg4zdI3/b2AvGQO0uBUpOMgJ/5OGk/9dCalmIK0pebO1JgA4Z8fRlq+PTXDLqm2F7T9Ne0iR6zEXghQdIThjDBDs6SU5iHuFR2f4Udv4h45WHiYuIv1uGps61LOdBCgxUT7ueNT2f6V8Hx6U4OKnDUkhjhYqWWn7yFAkKt7M7uKRTT/DsYPE4PF8DiulC0qVhLM8tFBC790kAK/mit14s0so9s8L6rHWhMsqlAAS7pJUkOJuQyjsBFEAEv4HuzfR3LTB6iNJ6fIyYqVkSxEZS9yl5bOMpJ0B6S9ldk4YQhaxnzgKJcgd4AyykSZh0jHS+2ZANuntFmpYA31eXOCAtKzTuJgPp7yju0bXjfRLDxE5+HdCgHCVHMlV2BU5SfERi8XCKVFKgXBII3CjJTABM2flEWaJTIURfQ31qzhyp3Y0AgmH3dfc0E7m8QrrXlY94s4+8qg0DxMgvIa2zMWqwTo7O9oJGXsTzcykJzSBIUDVVrEiSwm2jGbSpuEjxUqIkkPZxrlBeX2iTfyhwSZ1oNifm01E3lqIC2hRoHt0rUJSNh1hKVq96u9C8yXJtzMV0KBDW6c52czUdomSZhiBy/+iZ3vAWEK7zsP2LtLqw/KYlSHr4zuLd0DfpFQJac99QA4NZlg/VUWEF5yu9OrS1cD8MBzO3eBzp9akd5KRnFykX5j4cozOJhvG+oZTr1v8j43jJ9tcD6tcvYV3kbB5p6fBoy5MfcbcWfqs+rDMKLjQ8ZbbLKRJrdW/tSYNNJTB8PEBhziMC/+9agEj/UE+tejnxzHyEdjiEqnlOQ8LS8BzgqT+TfAEv/AIgCLmXMHV9ATPacoJtpTd5/7uTuwgHKtp/e8feJPlAhWoNN5vWbDSZFAN4JKrB62k3RI+JiN52poNbzKiIqJpuPmdfmQOggZWvp5UBNAJ7wyCzy2nehY/E6Sgk+LnxPJwHuxoGgkK0tWTzcyP6iT5WilxI3DW0YfIeZMXFK0YatlFtEgmxvFbGFjU0d6z1JKrlm0gOClYRjoVRlDp/qpjU/xLQ+Pg4wpi4KfFCi/kpMZLtRH1/nXWNn6VIOJ2dwmKR3kKKFbBSD80J8Y0wvdXJi0xZwREOGmLeGI7uOd3PnXQ4dMoNaIfgmcZnyuHarPNt2jQr7P4dMjiAkLd3M0ZwMpCQWUEpWXFSpNmjtuUkkc+mUxMGO36G+kK+FxQknuGX+Iu4q8AJypQebBTO2Zs4LEhKQ7Sc1oczxODGWfHOTGyzS+GXTezs/xD9HkJP/ADeGb1Ky60j/ALSyajRKj4GVw2q9Fe1cPhOGKsda1lARnOYqVmWWCEi7GTnQzjG9ldskJOEsu4IIM0rG4MjyiZHFgFQWnOhYyrSfeDgyNlAgEGxAjzc9z6306sdXvPb1zETw3H8OlRSnGwl0dwpJoQ8lIUJgsxiAcAjCQlCHCEAJSCSSAAwDmZ6xwPQjsPDXwvEo9cpaMcMElORWGUgsqSj3wcsw3sJjD8JxnFJSx4nEI+8pSmuT3nISBQbxlvS72PgMcJqQAKkmQjz/ANIeJRicRi4iJoUQxIYHKkJJ7xZiQ9LxyVcStQ7y1KoGKi2wIo/vE6Q+a8mm3sh9KuW6f4rbtMh0HQ3nN2JkS4uzJA3hA7AW+7IfBPmTCrrr76uRFA8OzkN001AJGzqPziEpkLbkaChFDMJTKDGrFjKbzdpOpTzYAsIiQTW0meZcu1CO8rMTsGg+TD+UbPIE3MuUAsz6zHiDVvxU5JiZC5TLlq+M5qAEwWiHFMp+Pe0Z3Iq0g1zSCE56aUDe02oSGSNyYCzhEFyGdxRmsfdDtEgIGsgTuA19wl+q4gwxzu4BUQ/QgWaJBWoeVCBykHZyQTyEBdw1PWt3IkRUTU8jFbj+FGMjI8wHQdCOVjQxLgLY1LNu7NIvK0+a4kCp1mLv0+0fpoG9MDiuklJDEVhRuMTgMNZKihJJq9ZSnKFGX8v9bf2n4xmUT8afT/M8okQLDwD+YSw84hQo2/3y+A6mJlftVm6ZiwHSz3jdgQIt5NI8kvPmaw55lvhy10GpcwiSaTHUj5Jhjo9xQi8rFnsBzMAQ3/dvEgNvNyTBIMpaGhJbogAecMDv9SEpdBrMw6XqxI6q81FoqHVOUpC7CW4BLJ11YQCC8gXneT3noTUtQNDguJF+XeEpiSQ3SGKbEG4bW9dbqNgw1gki51MqDMxm1EtLmYrrbl1SDLQBz9dYnIffoJvdjrbQc4iUbP4Hl7qB84DhdqYf0xHxtcmNdwB9d2PipdzhhCxtkKQryQvxjMdpokTToAPMvGj/AIZpC08RgKMsRK0tzQA/XMfCLY3VVvhj0RawIqpBElBiKjQisbnsT0WRkSvHJcgHIDlCQaBRqT4R345zDvXPcbe0cLBMdPhMFa/ZQpXIExreH4DAQxThpH3ikq/UX+Mdng8LOpKXYHylF58zGz699Iz4MsNdUs3+sZh9h4yvdCfxEfJzEn/6q/t4nRKfmf2jfowcJyliWIDkkCYOgE5Ry+Owsi1I0MuVvKK35Gd7eGcmP/PdlUeivDCZSpZF1LI/pYRR9IuzRh4SsTDT7AdSXLFNyCXYgTjY8KpkhSggJUvKVKZmylwDah8RHNUgLStBmDmSdwQ0W5eLUt3vSvFy5XKSzW3G/hb6SqPEp4ZeUJxErKa5syAFAPcZQqR0ET9u8EnC4jEQAEsslPsgMe8hwJmRHhHn3YnFHheLwsQlvVYqQs7BWVf6c0ewenuA2IhYotDGZ9pNZAOe6U3jg5JJezuxrJJFp8jv8FKvoIfPpJ92Egzys4AAv5wKt3lsRWrOXKjRzrDmT0YeAI/tSG6xkuIPJw4abgtSrrI3teEgjV23Dym0gAxLPO0MJH98rzEgSq5DFhqNYIF7u2mZQvRmFj4wByq9XJIFRJKlD+kRLhu1SDOhIEtAkOWcAnWI0r1lKR0kZs5ZKU2eZaDQizSlXcSSeQdSt2gCKJiRDfdFmusufrSHSn7LVG4k7c7qP+oBK2Ygj9I/dUGW3Iab5p7ZlWcaUgDQwtydiWZ95s6jo4iZCyzWn9o22yim8QoUXZn+Kp/3K/SIktNjvV7O6iwBIMmpAWUGY5yo1ef2inomJELaQcA0mS3gZyY9Yq5wbuNBPZ2SlqG8GFz5OGNHefPvED8kBY9c1z9fmhRXRisPab8xvPSFE7GRBlz833H0waDBm068q0pR9qAQBEtmvmI8VGlCwFodI8J18S/xPQRKBKHW7kDe6yfhBTOp5Zj5sAHF+cAC17zol+ZAJfltDqQ8/MjTdZ+UVSRs1Q1PBw3gB1hPt1lZgQCR7IkOZMOrn1BuZVZs1hoHiMEh6PtRgwccqDUmAlIJ3FPeVo9WTpOEKyIOzi+woDUvYQxDklqdeYdRyw+ZzbdiVeSAB4mAbNzOhoe9puaCchESgSGd2lIqItQCTTAnEqpTL69b1uaAWAgVgUlfdMpEkfZSHA1JMBzeNQwMmr9lPgzmLHoBxYw+MCSWzkAVr3h/d5QGPTTYEJtokPHH4TFOHxGGvRY1uWvziYiuh6T8N6vi+IRpiLI5L748lCPSEYoXgoWLpSodUy8zGO/iPhNxScQDu4uEhT6qS6D+kJ8Y0fohjBfCIBnlzIP5VFv0kRrnOrDpOLL+fJM/yrgxEjLMP3c8pBLHMCakmUo7PAYxGRbT7pI8C0V8LCQkSRPUmnKJEGKcPBlxy2+K6/m/InPJ042a9128VWETmGczCsqQcstQ4D2eOZ2jjZ1lWXLQNWgaA4bBXiFSUyShsxIUqtAlIqYbieEXhrCVkEKSVJIDUZwRYhxHV0X3l4nj287Hhk3ZqbUv+MhyVAvtTzhlJT7qco0iwcOB9VGd5Le1tqZxSeI8j9MOEycViCy2WPzCf6gqPWMXiDxPZXD8RVSQjP7VWOGr2Z+0BGR9POyipWFiAWUhXQ5k/FUaT+HKCvgOJ4RVUlRQNljMn9YVGeWUvZv/ACymMy9M8tIG27JTrdRJrOGBejGzPKTsnkPaPODWltp1ZKNPtOX6QAm8iZN76nGgJDByIyQEqMvF7mbvzUZAacokS5eqv5lMQS8yQLQEhOUnLijgZVK6SSNTBJZ5gaAVtJIciYEydSYB6B5Vp3QCxcAhIJaj8jBqNq2555hz95UzoOsAlcwAXtW+4QNGvCQubM16NZzVRU5AYNrAWSqveqKzAM2JlOZkALCHy+8QOZSB4lZJ2prESjrIh3+6yZkbJBakzBoLWy0+yGkC0wS7NKAkRcvrRywZnoB7IYN9qJCsj5yFmkOQZI3MRJJOpZvtqDt94gVhgqjG7C5lMPXM01ncATgJ1rM5PcvmIruQNaQwWJzkNGcC/shpAq6mIXmaVkWHNpiXdYkm5iQLcFyTR6qA8gmAn9er/wDnm33uOhl0hRXdvfSPDxkb16woDNOzuGP5R/U58odJD26u0rh/Eyq0CktJ22cC2iAT5xJvymxbm6i55cosgSlG3x03tqTsBDJHTdkjzUSYjyWbx8Z7XPQQaS1zq7gE1NSHe7CKpGH3/UZbOwEvjDKLCw+TSfkKAQzPNn3Ym+qiBDKBnSTTk4ajgaWGpiwFKQz0IswlJ6qk+p1MSJW5N+pW7zZksGiMvyc0fSbE3aqj0glTFSQ18ynloJDXrFQWZpU/lBnoAamj2eGArMDrIZf7Uz5kiElTSdmFHSnyS5hKa1LVYtz90Ce5gIMZJY1Fpki21VSJPOM32ihlO060b4l40qw2vznT8yj4COF2phtP4ANpUmcWGs9MGxeC4LiBbNhn8yQof0Hxix/DrHdGLh6KSsfmGU/0jxiDsv8A9fsdaL4S0qGwSsA/pKoXoNhlHEEWWhSeoIUPIHxieuTs0w4bnjbPTa8D2hgJVipx6JDpYnMSCzJa5fyiDsfihiKWEghIYhy5AJLAm5i9/wDisJaitaMyj4HmDKOhg8OhIZCAkaBgPKO7k+Vx3jsxl3defE1+GsrfteythYuLhrJQkKSoDMl2ml8pdwdOYcQZwMVa0rXlSEghKUySkHnF5Ia7Q7COb++Wu0njW/bO8OPVvd/delX1EL1EWSsRGrFEYd2u453a/BheGXHskKHw+BMU/RdQw+ISAW9YlSOak99PgEr8Y6vEKzJKdQR4iPPOH7YUjHw1mWTEQVbJzMv9JVEdOXVLHTjnMuHLCur6QcOMPHxUDuspTMw7qu8kEkEk5WpHOZzr0UpnAarCvkY1Xp7w+XGTih2WiZFigsW1UQUgRkVzLM8zYqYgzmotX5xNcEIGgqzSLGgk4EgEs7amHww4o9AJTIJ2uozOggc8mdxo4+CAd669IZSjub77nVz7IiEpAXAm/wDMx5BIo7isOiU6ETnkS893VEaROmxkWlaXupSX3JiRKcokWFX7iH+JeAkSJBpzADUcE5Q95usmDSSwAcyk0ip6citRzbCA8SCC7ZiWuMymAdmdtYdVySLu2tFEeSRyMBKsvMT3YkT+8ss28IzcDvbPmI0kkMASwd9YiGGLgOKSBNpAqkAHbecSNml7XirqwZMAkKLvWk5lzmMxsVB+SYIKcOZ7kPKgLqLAGrRFn6azDzYUBl3QAOZg+dyxDAibPWVWSORgJvWDUeKP2hQHrfvfqHyTCgM2F/6dTdAkUgwlp0Mvspf+ZzAt1Fdi8gQB4Ac4LM0qdUI/cxZBw2zc9C/hcm8oK99NDPVveNSbAQwB1fc5iN3Jkwq2whwbEWadwRQ7mp2EVSYIpJ92o93WdoJJB97zzcjlSGeGYEymdWBJ3mZTcDlDFQI1L0zP+lAiwZYNG1l0dn595RhmBe935kTIepsHoIkVhyobimUF7AO7VJO0R6TrNxyZ21NBFQYURt1SnyS5hBJNqyoWNSHKjTpNhAP02dKWOjs5anQQwD2fWRU/VbCAHEoS51e5cs/M0Gzxyu1MOVBcS2sCbANPeOss70mS4JGpLScCQEUONRIhtm00S/KZgOz/AA1XnTxXDE/9RCm6pKf3jodj8UhK8NdJpfZ5H4mM36AcV6vjkB5KBHPT4wXbgVh8TjYYMk4i22CjmT+lQiMsLlrXp1/F5ph1Y3xY9iC4f1sczsrjBjYSMQH2kh9lN3h0LxeSiNZg5bnUnrob1hgVFIqoDr8oA8SiznkP3i3TEyZXxEhJhshgBjqNEgcy8IhZ95uUoLTiy99ixAEjMoy8zsIw/EdkZioke0VEj8RL/GNmvAFTPnFPHQInG6a4Y44y+0nbJOL2fg4xPew8oWX9ksULO/eEYnEFQQAJMCASk2AzSdnJ5xv+xkes4biuHk4dSBpmTnSf/kCzGBxDq7S5kKP9Sz5C0ZZTVc3i2BC2k/TN/agT6w6ROjXdmnqSpRJYEtDLWWZ9jMgbsEh5UrbnDISBbT3QP1LJeKg0tQbSJ5Mk7q9pUSIVVjMzeQexJJBIBLsNBEOZ3cvV2IUazpVRkJUETOWqAXmasQA5/CkGW/mB5ZUcNopfmogXNobPVj5ptRwJMkORud4SHJo87graki5YawJXbxBInOmVAmPqcA4UygxDAgTrKgPL2iIlzOwY6j2lWcaAecR4aTSemhLm+mZWsglMJhpm1LTmasdTIaAQBZ7AsbToQxHdSDQzgkLqKAMzzYAAh9wPNURjRzUX+SIcAg0D6ey83oSSZz5CAsevFwrxoLCthLpDQ2b/ANwp2I8+tesKAz2a/wAJu8n60ESoVlFQNWKUjxqRaIcr/WsnG5oNBEuffwkJCjtQU5vFkJU6s/RSm5FRAgVDq9nqZ+ZvtAJQ4EnYaKVexUwEIqH+HSCXsAmhMp6QCQp5md6SaUwPICHUqz11Ua7pQGhs1yQLvaUiegkBrOFmsXlYlWlO7UtXnFUke68mDF5BAM6EqLwnNXDsS/L3hsHYDWGQl3UzGvshj+ZcybwwVOzidc3iWZkhzzgCptQb0kJ83JhiHLs/RSz4mUIiUwWahuCXbmozO0OXOj694udkvJLy6QAqXvMUcpHVkiK3EJcEWal2M25qqdosqLSmkVZ0o8hOIcZIINec9ADMh1E0HWA4nBYxw+JQvRY/bwjc+lvABXE5wJLw8Nb6nvIPklPjGA7QBCnaY8iKDpHpPGYoXw3CY33VYZ5kBQ/oV4xtw37QnlX7KQvD9hakvUCh6GUdvDK1+0tR6lvASjn8Ip46SFtHTnG+NxjpcNgACJcTFSmOani4DFKlRz67rXN0MPjQTFwYso4/B8MXjrepYRGWWOPZz5c+MuqixMR4p4yTF3DROLK8ENE9Uievc7Of6M4xRxLWxEEc1IOZI8CuMx23wvq8fFRMMtZHIl85/KQAOcdzFxPV4uGv7C0nkFHIo/yqVA+n3CtxCViXrEJLzbMnuzNAAGMV5fO1N92TSZhgxkGfUHKh9hMmBQKFpVzBPX2ln6eEsyoSLasSzfiWa7dYFBBNnd/ZB5s5bKCw6RklItRlMkyY5sygWZ2SGEoc3YUYAGX4Un+pUAVmU53GYndsqJQTHQgcmcNMBySSZB7CAlSXrMSneZYFiaqPkINCpAO1WmE70R0iFtSwYkkM1GUoNoO6BE+cgzlY0AeUpBywIecAxF2YzNCGBd6lyWfxh17ltwJiQ8QAco5mERQsx1YDqCveFhl6NXpdnlaajuRAGsWnpdn2CagUrAENKlvdS8ma5Y6QIVOkrvQAU0MhM84ZPdlTqz9A584CZlGdeZ+pabNCgc2x8F/vCgOClPPzvoTUmm0G7TcfKUqfZFBqYjQDORnKQL+KjKCS1JA+Ur/hHmYsgeV7PSTFR5TLAtCK2+YzAeSA8ClLyZzITDmf9xqekHMXI6pTWVEh4BORPWYNAGuxskeJhhr0AvObfiJmdoSibTv7zO91GwM4EA6uDebsfmryGkEnKdA93CXI6qLQeeZcvWRVpZkiGKHNATObZvDQJpAoOsqVUEg6yE9YqCcsJmhJq7GRPMswGkIq5TtaVvwpDnnDILAEEPyMpVJNWDw6E6jQAaiyTuZKMAYRoDO4SlPOanMRYo8R+JZHgwtE6jcTrYOdS5MhpEa5yJHIqKjW4TAZ7tRDfXlzNTG19GMT1nZqk3wloPIZwFH+UrjKdp4fdo1bNpQV2ju/w1Xn/wCRw5piII8QU/MxfG6u0Vq+B4WL2Jwcop9mcW4STJwC2hIpHWXjhoz+Rz5TLUebzc+cy1FHh+HnHSw8ERzUcSM0dFHEBo0+2WMrq4ua2dySoJVFxeMMsZ/jOPQFMVgGwfvHkKmJ8FWKsdzCWdynIP1lJPQGK8nHezLkxyyy3E//ACWVF08WMsUUdh46y6lIQNsyz/aB5xewfR1Hv4mIvbNkH6AD4kxpJNd3RhMscdVlu3OJSxBUA7iZaukdv0qfF4Hh+IKTmGXMCFOM6A8g3vACesd/hOysLDLow0JOoSMx5qqYf0hwM/CYyfuFQrVHft+GGV3NLTy8jWTVyJkuZN9pTa2Ahn0E5ADeRSnk3ePWohwkibXE2CUvNiXLljOIyWsZHqxNPxKPlGTRKlcqy/EEv0SH/wBxIhNZbvlAa7uudzOIUq3q83IpV2HsjupEGBdn3CX39pcBYw6DKeWgYOmlkifMiD2HKrFiS07EzUYgQubGb0nmOwJAYB2J5QSVvUvbm+u6j5c4CYi5pKbNauZZ50gXPPqTeQeQA1awgFLIebmc5a1BNJuBygAoq+8KOxVtUsPKAmVOT187zfUjNyDQAVIzNr1qxZIdzWIyvd9Q4qRQtKchyBgVLlV/nrSmvIQQlTy/T+6oUR5xb+kfMwoslyUJuz/lJ81GJkpnvd2k1yB7omW3iBKRMM/RSh5loMqtTnkHkJwQIh6eF5/3K+EEiU6VoUpBas61gUjct5sfmo+Agnr8mtVnoBrrAEZ/e09pe+wFIcCdxd76EkazYCBUvd/zKUeoTKHSCBRvysA12JsPhBJJFuQbl7vIVMMTcU1GVIbV6wSgJyPK7H3eZqTDvrWcwEudSHokFk9IBgBI1NfeWelALGEktKZ+LE2+8S/SGzgykS03UVdGTKGSmrVkxYJArMB3dpdRASs7/QcScj7KfjEa1HUzpPL5JnBAbTkGfqET8VGdYALOpnejzmolpB5AbRUUOOw5EtauVn6qMP6DcV6vjkaK7vjIfGC4mblnPIqPiqQji4GN6vHQse6sG2u0TEV6bjYS0Yy0JQtTLURlQpQZZzpmAzMoDpHSwOA4lYlhZN1rSnyRmPiBGx4ZYWhKhRQBHUPEwTFrjMvMc+XDjld1k8H0YxDNeME7IRMfmWSD/LHSwvRzCHtZ1/jWog80hknwjuAQxi26vMZPEcbheFGZSMFKMJCDlJQhLqUwJCQ2UAOA5BcvRotozoUlK1Z0qLBTAKCmcBTSILGYAYsJvIEYgwlKSsEIUoqSpiU96ZCiPZLvWU4Ssb1qkBDlCVBalsQk5ZpSkn2jmYuJMDcxC7pgQ8RqxQkOSANSWHnHI4z0p4XD9rGSTonvHygh3BHN9I+OThcMtSiAVJKEvdSxlFOb9IzPF/xAR/2sFSnc5lkJSwLEsHLPyjL9p9sY3EKCsRVGZKTlCCfdG7FyYi1MikhNwG3CBuzlZgQupNKqYuQ8iXEnZkiArQfmylVdSu0EFl63lMSec0pDFt4ouNCmLACZpaQodkhyd2gqzYkjUZjzdRYOBEU6Ns2xoDuTM7Sh5Xv/AImQdTIbAwEubd+pNNAmkEhUyTIzcGs7tqzJERINmfaZtoiDDPPu/wAqWOoTfWsBKC1ecqaS5PlAuSYZS3rO4PtMeapa0gCWr3fk1t2/qMRis/lKlz0nqTATMWqSPxFTfADSICrl8i/yMugiVSnD1lJ5jxLAeEQAv9SPVh/obxZA/W7+UKBz7nwEKKpc5dJtcXNNnlEiAdD0ygfMwoUWQInWVSZu2ppM2EHSQAsOT+ynlcmFCgHCizuWp7RAM2oBzhJIJaT6gOX5qMKFBJ8Q1qJE7gD2j+I0hg4LCsg1gWcDkBM6mFCgDTIOHbUlhK7JDwyWdg09A5d9VHWFCgGxAwm47p0cJuZe8TDFRNg7gNbMRIfhAnzhoUBVxmqTLdyfCkcjjsA2+QEKFAeu/wANvSNPEcOMJT+swgEmRYixB8o22aFCiylCvEADmkZztX054PAJClqUoWShXxIAhQoUjg8F/ElHEYycHCwVJCveWR/Sn949A4PhM/tLUX07vwn5woUCvHu1UYhxMROItayhRSXXKRI00FoopwQ5AZxYB7ymo/KFCiq6UIMpMZM5ejs7CgrDZXS4o3Ujfcn4WhQoqHUkXAcFrkasA7MAWg2UKuKvMAS0y84UKABwx2qzs0gWcu5kOUIK0s/lJXgJCFCgHQsXlK76UDbERIl2cUavsg9BOFCgHCgwPwdtabTPOIioyaTfs7eE+cKFFhItZbo/LWZfyERHEefKbP8AE/KFCgg77nyh4UKA/9k=;" parent="DDt3_GRIumfsRX5ZI_BE-1" vertex="1">
                    <mxGeometry x="340" y="580" width="175" height="116.45" as="geometry"/>
                </mxCell>
            </root>
        </mxGraphModel>
    </diagram>
</mxfile>